<?xml version="1.0" encoding="utf-8"?>
<!-- Generator: Adobe Illustrator 21.0.0, SVG Export Plug-In . SVG Version: 6.00 Build 0)  -->
<svg version="1.1" id="Layer_1" xmlns="http://www.w3.org/2000/svg" xmlns:xlink="http://www.w3.org/1999/xlink" x="0px" y="0px"
	 viewBox="0 0 640.1 400.2" style="enable-background:new 0 0 640.1 400.2;" xml:space="preserve">
<style type="text/css">
	.st0{clip-path:url(#SVGID_2_);}
	.st1{opacity:0.35;fill:none;stroke:#B8B2FF;stroke-width:0.8324;stroke-miterlimit:10;}
	.st2{fill:none;stroke:#B8B2FF;stroke-width:1.6648;stroke-miterlimit:10;}
	.st3{opacity:0.5;fill:#B8B2FF;}
	.st4{opacity:0.5;}
	.st5{fill:#B8B2FF;}
	.st6{fill:#FFFFFF;}
</style>
<g id="Background">
</g>
<g>
	<defs>
		<rect id="SVGID_1_" x="7.7" y="-6.2" width="624.3" height="416.2"/>
	</defs>
	<clipPath id="SVGID_2_">
		<use xlink:href="#SVGID_1_"  style="overflow:visible;"/>
	</clipPath>
	<g class="st0">
		<g>
			<path class="st1" d="M221.5,434.7c0,0,54.7-111.4-11.5-166.7c-82-68.5-247.6-31.5-240.4-185.8"/>
		</g>
		<g>
			<path class="st1" d="M453.6-47.5c0,0-54.7,111.4,11.5,166.7c82,68.5,247.6,31.5,240.4,185.8"/>
		</g>
		<circle class="st2" cx="68" cy="360.9" r="5.4"/>
		<circle class="st2" cx="591.8" cy="49.2" r="5.4"/>
		<path class="st3" d="M75.1,119.6c-0.9,0-1.7,0.8-1.7,1.7s0.8,1.7,1.7,1.7s1.7-0.8,1.7-1.7S76,119.6,75.1,119.6z M92.9,119.6
			c-0.9,0-1.7,0.8-1.7,1.7s0.8,1.7,1.7,1.7c0.9,0,1.7-0.8,1.7-1.7S93.8,119.6,92.9,119.6z M57.4,119.6c-0.9,0-1.7,0.8-1.7,1.7
			s0.7,1.7,1.7,1.7c0.9,0,1.7-0.8,1.7-1.7S58.3,119.6,57.4,119.6z M128.4,119.6c-0.9,0-1.7,0.8-1.7,1.7s0.8,1.7,1.7,1.7
			c0.9,0,1.7-0.8,1.7-1.7S129.3,119.6,128.4,119.6z M110.6,119.6c-0.9,0-1.7,0.8-1.7,1.7s0.8,1.7,1.7,1.7c0.9,0,1.7-0.8,1.7-1.7
			S111.5,119.6,110.6,119.6z"/>
		<path class="st3" d="M445.4,359.2c-0.9,0-1.7,0.8-1.7,1.7s0.8,1.7,1.7,1.7c0.9,0,1.7-0.8,1.7-1.7S446.3,359.2,445.4,359.2z
			 M463.1,359.2c-0.9,0-1.7,0.8-1.7,1.7s0.8,1.7,1.7,1.7s1.7-0.8,1.7-1.7S464,359.2,463.1,359.2z M427.6,359.2
			c-0.9,0-1.7,0.8-1.7,1.7s0.8,1.7,1.7,1.7c0.9,0,1.7-0.8,1.7-1.7S428.5,359.2,427.6,359.2z M498.6,359.2c-0.9,0-1.7,0.8-1.7,1.7
			s0.8,1.7,1.7,1.7s1.7-0.8,1.7-1.7S499.5,359.2,498.6,359.2z M480.9,359.2c-0.9,0-1.7,0.8-1.7,1.7s0.8,1.7,1.7,1.7
			c0.9,0,1.7-0.8,1.7-1.7S481.8,359.2,480.9,359.2z"/>
		<path class="st1" d="M565.6-20.3c0,0-38.1,58.4,14.2,65.9c52.3,7.5,6.3,80.1,71.8,75.4"/>
		<path class="st1" d="M125.7,422.6c0,0-62-4.5-58.9-91.3c1.2-32.8-27.2-62-70-41.5"/>
		<g class="st4">
			<circle class="st5" cx="333.3" cy="309.6" r="1"/>
			<circle class="st5" cx="333.3" cy="304" r="1"/>
			<circle class="st5" cx="341" cy="309.6" r="1"/>
			<circle class="st5" cx="341" cy="304" r="1"/>
			<circle class="st5" cx="348.6" cy="309.6" r="1"/>
			<circle class="st5" cx="348.6" cy="304" r="1"/>
			<circle class="st5" cx="356.2" cy="309.6" r="1"/>
			<circle class="st5" cx="356.2" cy="304" r="1"/>
			<circle class="st5" cx="363.9" cy="309.6" r="1"/>
			<circle class="st5" cx="363.9" cy="304" r="1"/>
			<circle class="st5" cx="371.5" cy="309.6" r="1"/>
			<circle class="st5" cx="371.5" cy="304" r="1"/>
			<circle class="st5" cx="379.2" cy="309.6" r="1"/>
			<circle class="st5" cx="379.2" cy="304" r="1"/>
			<circle class="st5" cx="386.8" cy="309.6" r="1"/>
			<circle class="st5" cx="386.8" cy="304" r="1"/>
		</g>
		<g>
			<polygon class="st5" points="101.8,301.4 101.8,300.8 100.2,300.8 100.2,299.2 99.6,299.2 99.6,300.8 98,300.8 98,301.4 
				99.6,301.4 99.6,303 100.2,303 100.2,301.4 			"/>
			<polygon class="st5" points="113.9,301.4 113.9,300.8 112.3,300.8 112.3,299.2 111.7,299.2 111.7,300.8 110.2,300.8 110.2,301.4 
				111.7,301.4 111.7,303 112.3,303 112.3,301.4 			"/>
			<polygon class="st5" points="124.5,301.4 126,301.4 126,300.8 124.5,300.8 124.5,299.2 123.9,299.2 123.9,300.8 122.3,300.8 
				122.3,301.4 123.9,301.4 123.9,303 124.5,303 			"/>
		</g>
		<g>
			<polygon class="st5" points="518.5,57.2 518.5,56.5 516.9,56.5 516.9,55 516.3,55 516.3,56.5 514.7,56.5 514.7,57.2 516.3,57.2 
				516.3,58.7 516.9,58.7 516.9,57.2 			"/>
			<polygon class="st5" points="530.6,57.2 530.6,56.5 529.1,56.5 529.1,55 528.4,55 528.4,56.5 526.9,56.5 526.9,57.2 528.4,57.2 
				528.4,58.7 529.1,58.7 529.1,57.2 			"/>
			<polygon class="st5" points="541.2,57.2 542.8,57.2 542.8,56.5 541.2,56.5 541.2,55 540.6,55 540.6,56.5 539,56.5 539,57.2 
				540.6,57.2 540.6,58.7 541.2,58.7 			"/>
		</g>
	</g>
</g>
<g>
	<g>
		<g>
			<g>
				<g>
					<g>
						<path class="st6" d="M349.5,125.6c-0.8-1.7-1.9-3.3-3.2-4.6c-2.7-2.6-6.1-3.6-9.5-3c-1.9,0.3-3.7,1-5.2,2.4c0,0,0,0,0,0
							c1.8-1.1,3.8-1.8,5.9-1.7c2,0.1,3.9,0.7,5.7,1.7c1.7,1,3.2,2.5,4.3,4.3c0.5,0.9,1,1.8,1.3,2.8c0.4,1.1,0.5,2.2,0.7,3.3
							c0.1,0.6,1.2,0.9,1.2,0.1C350.9,129.2,350.2,127.2,349.5,125.6z"/>
					</g>
					<g>
						<path class="st6" d="M394,158.3c-0.7-2.6-1.9-5-3.3-7.2c-1.5-2.2-3.3-4.1-5.4-5.6c-2-1.4-4.2-2.5-6.6-2.4
							c0.3-1.9-0.1-4.1-0.6-5.9c-0.6-2-1.5-4-2.6-5.7c-2.3-3.4-5.7-5.9-9.4-6.9c-2.1-0.6-4.3-1.1-6.4-0.6c-1.1,0.3-0.4,2,0.5,1.9
							c1.1-0.1,2.2-0.2,3.3-0.2c1.1,0,2.2,0.2,3.2,0.6c2.1,0.7,4,1.8,5.7,3.3c1.8,1.7,3.3,3.8,4.3,6.1c1,2.4,1.3,4.8,1.6,7.4
							c-0.1,0-0.2,0-0.3,0c-2.3,0.3-4.5,1.9-5.2,4.3c-1.9,0.4-4.1,1.2-6,0.3c-1.7-0.8-2.7-2.6-3.3-4.4c-1.3-3.7-1.7-8-4.9-10.5
							c-3.7-2.9-8.2-1.8-12.1-0.6c-2.5,0.8-4.9,1.7-7.5,1.6c-2.3-0.1-4.5-1-6-3.1c0,0-0.1,0-0.1,0c2,3.7,6.3,4.6,9.7,4.1
							c2.5-0.4,4.8-1.2,7.3-1.8c2-0.5,4-0.6,6-0.1c1.9,0.4,3.5,1.6,4.5,3.5c1,1.8,1.4,3.9,1.9,5.8c0.5,1.8,1.1,3.6,2.2,5
							c1.3,1.6,3.2,2.2,5,2.2c3.7,0,8.7-2.9,11.3,1.7c0.3,0.5,1.3,0.4,1.1-0.3c-0.3-1.9-2-3.1-3.6-3.6c-1.7-0.5-3.4-0.4-5,0
							c1.2-1.6,2.8-2.8,4.7-3c2.3-0.2,4.6,1.1,6.5,2.5c3.6,2.7,6.3,6.7,7.6,11.2c0.4,1.2,0.6,2.5,0.8,3.7c0.1,0.6,0.1,1.3,0.2,1.9
							c0,0.7,0,1.4,0.1,2.1c0.2,0.7,1.1,1.2,1.5,0.4c0.5-1.1,0.2-2.7,0.1-3.9C394.7,161,394.4,159.6,394,158.3z"/>
					</g>
					<g>
						<path class="st6" d="M372,139.6c-1.2-0.3-2.3-0.3-3.4,0.2c0.2-0.8,0.3-1.6,0.4-2.4c0.1-1.1,0-2.2-0.2-3.2
							c-0.1-0.5-0.3-1-0.5-1.5c-0.2-0.5-0.5-0.8-0.8-1.3c0,0-0.1,0,0,0c0.1,0.3,0.1,0.7,0.2,1c0,0.2,0.1,0.4,0.1,0.6
							c0.1,0.5,0.2,1,0.2,1.5c0.1,1,0.1,1.9,0,2.8c-0.1,0.9-0.4,1.8-0.7,2.7c-0.2,0.4-0.4,0.8-0.6,1.2c-0.2,0.2-0.4,0.5-0.6,0.7
							c-0.1,0.2-0.3,0.3-0.4,0.5c-0.1,0.2-0.2,0.4-0.1,0.6c0,0.1,0,0.2-0.1,0.3c-0.1,0.6,0.9,1.2,1.2,0.7c0.1-0.2,0.2-0.4,0.4-0.6
							c0.2-0.2,0.3-0.5,0.5-0.8c0.3-0.5,0.7-1,1.2-1.5c0.9-0.8,2.1-1.2,3.3-1.1C372.1,139.8,372.1,139.6,372,139.6z"/>
					</g>
					<g>
						<path class="st6" d="M385.4,155.3c-0.2-0.2-0.4-0.2-0.6-0.2c-0.1-0.3-0.2-0.6-0.3-0.8c-0.3-0.5-0.9-0.3-1,0.2
							c-0.2,0.7,0.1,1.5,0.1,2.2c0,0.7-0.1,1.5-0.2,2.2c-0.3,1.5-0.7,3-1.6,4.1c-0.1,0.1,0.1,0.2,0.2,0.1c1.1-1.1,2.1-2.3,2.6-3.9
							c0.2-0.5,0.3-1.2,0.4-1.8c0.5,1,1,2,1.2,3.1c0.3,1.5,0.4,3.1,0,4.6c-0.3,1.3-0.9,2.6-1.6,3.7c-0.8,1.1-1.8,1.9-2.7,2.8
							c-0.2,0.2,0.1,0.5,0.3,0.5c2.7-0.7,4.7-3.8,5.3-6.7C388.3,162.2,387.7,157.8,385.4,155.3z"/>
					</g>
					<g>
						<path class="st6" d="M404.9,188.6c0.4-2.4-0.3-5-1.1-7.3c-1.6-4.6-4-8.8-7-12.4c-0.8-1-1.7-1.9-2.6-2.8c-1-0.9-1.9-1.6-3-2.3
							c-0.1-0.1-0.2,0.1-0.1,0.1c1.4,1.5,2.8,3.2,4.1,4.9c1.3,1.7,2.5,3.5,3.5,5.4c1.1,1.8,2,3.8,2.7,5.8c0.8,2.1,1.6,4.3,1.6,6.5
							c0,1.1-0.1,2.2-0.6,3.1c-0.3,0.8-0.8,1.2-1.3,1.7c-0.4-0.8-0.7-1.6-0.7-2.6c0-0.3-0.5-0.5-0.6-0.2c-0.9,2.9,1.5,5.6,3.1,7.7
							c1.7,2.1,2.9,4.5,3.6,7.2c0.6,2.6,0.7,5.4,0.1,7.9c-0.7,2.7-2.1,4.7-3.6,6.7c-1.2,1.6-2.4,3.3-2.8,5.4c-0.4-1-0.9-2-1.4-3
							c0-0.1-0.2-0.1-0.2,0c0.6,2.3,1,4.7,1.3,7c0.3,2.4,0.5,4.8,0.3,7.3c-0.3,4.1-1.3,8.5-4.4,11.1c-1.3,1.1-2.9,1.8-4.6,2
							c-0.1-1.5-0.5-2.9-0.9-4.3c0-0.1-0.1-0.1-0.1,0c0.2,1.4,0.1,2.9-0.1,4.3c-0.1,0-0.1,0-0.2,0c-1.1-0.1-1,1.5-0.2,2
							c0,0.2-0.1,0.5-0.1,0.7c-0.5,2.2-1.2,4.3-2.4,6.2c-2.5,4-6.3,6.6-10.7,7.3c-2.5,0.4-5.1,0.1-7.5-0.6c-0.5-0.2-1.2,0.2-1.2,0.8
							c-0.1,0.7,0.5,1.2,1,1.4c4.8,1.8,10.2,1.1,14.4-1.6c4.1-2.6,6.7-7,7.7-12c0.1-0.6,0.2-1.3,0.3-1.9c4,0.2,7.4-2.7,9.1-6.5
							c2-4.4,2.2-9.8,1.4-14.6c-0.1-0.8-0.3-1.5-0.5-2.2c0.3,0,0.5-0.2,0.5-0.6c0-2.6,1.4-4.7,2.8-6.6c1.5-2.1,2.9-4.1,3.7-6.8
							c1.4-5.1,0.8-11.1-2.3-15.6c-1-1.4-2.4-2.7-3.5-4C403.8,192.3,404.7,190.2,404.9,188.6z"/>
					</g>
					<g>
						<path class="st6" d="M370.8,260.6c-1.1,1.4-2.4,2.8-3.9,3.8c-1.5,0.9-3.1,1.4-4.9,1.4c-1.6,0-3.3-0.3-4.9-1
							c-0.8-0.4-1.6-0.9-2.3-1.4c-0.3-0.2-0.5-0.4-0.7-0.6c2.8-0.6,5.5-2.3,6.8-5c0.5-1-1.1-2-1.7-1.2c-1.1,1.5-2.4,2.8-4.1,3.6
							c-1.5,0.7-3.2,1-4.9,0.8c-3.5-0.5-6.8-3.2-8.3-6.8c-0.1-0.2-0.3-0.1-0.2,0.1c1.2,4.2,4.6,7.6,8.5,8.5c1,0.2,2,0.3,3,0.2
							c0.3,0.5,0.7,0.9,1.1,1.3c0.7,0.8,1.6,1.4,2.4,2c1.8,1.1,3.7,1.8,5.7,1.9c3.9,0.2,8.5-2.3,10-6.3
							C372.7,260.8,371.4,259.9,370.8,260.6z"/>
					</g>
					<g>
						<path class="st6" d="M340.2,122c-0.2-0.4-0.7-0.5-0.9-0.2c-0.4,0.4-0.4,1.1-0.6,1.6c-0.2,0.6-0.6,1.1-1,1.5
							c-0.9,0.9-1.9,1.5-3.1,1.6c-0.1,0-0.1,0.2,0,0.2c1.3,0.3,2.8,0,3.8-0.8c0,0.5,0.1,1,0.3,1.5c0.3,1,0.8,2.2,1.7,2.7
							c0.1,0,0.1,0,0.1-0.1c-0.1-0.9-0.5-1.8-0.7-2.7c-0.2-1-0.1-2,0-3c0-0.1,0-0.2,0-0.2C340.2,123.5,340.5,122.7,340.2,122z"/>
					</g>
					<g>
						<path class="st6" d="M338.7,117.8c-0.6-0.4-1.4-0.5-2-0.7c-0.7-0.3-1.3-0.6-2-0.9c-1.3-0.7-2.6-1.6-3.7-2.7c0,0,0,0,0,0
							c1,1.3,2.1,2.4,3.4,3.3c0.7,0.5,1.4,0.9,2.1,1.2c0.7,0.3,1.5,0.7,2.2,0.7C339,118.6,339,118,338.7,117.8z"/>
					</g>
					<g>
						<path class="st6" d="M344.5,182.3c-2.7-3.1-6.6-4.5-10.3-3.9c-2,0.4-3.9,1.5-5.4,3c-1.4,1.5-2.8,3.6-2.9,5.9
							c0,0.7,1,1.2,1.2,0.5c0.7-1.8,1.3-3.4,2.5-4.8c1.1-1.3,2.6-2.3,4.2-2.8c3.3-1,7.1,0.3,9.6,3c2.9,3.2,3.6,8,3.1,12.2
							c-0.5,4.4-2.2,8.4-3.7,12.4c-0.8,2.2-1.7,4.5-2.3,6.8c-0.3,1.1-0.5,2.2-0.7,3.4c-0.2,1.3-0.1,2.5-0.2,3.8c0,0.1,0.1,0.1,0.1,0
							c0.1-2.3,0.9-4.7,1.6-6.9c0.7-2.2,1.6-4.3,2.5-6.4c1.8-4.2,3.7-8.6,4.1-13.4C348.5,190.7,347.4,185.7,344.5,182.3z"/>
					</g>
					<g>
						<path class="st6" d="M336.9,194.6c-0.8,0.2-1.6,0.4-2.4,0.7c-0.7,0.3-1.4,0.8-2.1,1.4c-1.3,1.2-2.3,2.6-2.7,4.5
							c-0.2,0.7,0.9,1,1.2,0.5c0.7-1.4,1.5-2.8,2.5-4C334.3,196.5,335.5,195.2,336.9,194.6C336.9,194.6,336.9,194.6,336.9,194.6z"/>
					</g>
					<g>
						<path class="st6" d="M366.9,239.2c-1.3-4.7-5-8.5-9.6-8.6c-2.4-0.1-4.7,0.9-6.1,3c-0.4,0.7,0.5,1.5,1,0.9
							c2.5-2.8,6.9-3.1,9.9-0.5c3.2,2.7,4.3,7.3,3.7,11.4c-0.2,1.2-0.5,2.4-0.9,3.6c-0.4,1.1-0.8,2.4-1.5,3.4c0,0.1,0,0.1,0.1,0.1
							c0.7-0.9,1.5-1.7,2.1-2.7c0.6-1,1-2.2,1.3-3.4C367.5,244,367.6,241.6,366.9,239.2z"/>
					</g>
					<g>
						<path class="st6" d="M319.8,158.2c-0.6-0.3-1.3-0.3-1.9-0.5c-0.6-0.2-1.3-0.5-1.9-0.9c-1.2-0.7-2.4-1.8-3.2-3.1
							c0,0-0.1,0-0.1,0c0.7,1.5,1.5,2.7,2.7,3.8c0.6,0.5,1.3,0.9,1.9,1.3c0.7,0.3,1.6,0.8,2.3,0.7
							C320.3,159.5,320.5,158.6,319.8,158.2z"/>
					</g>
					<g>
						<path class="st6" d="M392.1,206.8c-1.7-4.1-5.1-7-9-8.1c-2-0.6-4.2-0.7-6.2,0.1c-0.1,0,0,0.1,0,0.1c3.4-0.1,6.9,0.7,9.7,3.2
							c2.8,2.5,4.3,6.2,4.7,10c0.2,2.2-0.1,4.4-0.8,6.4c-0.1,0.4,0.4,0.8,0.7,0.5C393.5,215.6,393.8,210.7,392.1,206.8z"/>
					</g>
					<g>
						<path class="st6" d="M391.8,173.8c-0.5-1.4-1.3-2.7-2.1-3.9c-0.4-0.6-0.9-1.2-1.4-1.8c-0.5-0.6-1-1.2-1.7-1.4
							c-0.4-0.1-0.8,0.3-0.6,0.7c0.3,0.6,0.8,1,1.2,1.4c0.5,0.5,0.9,1,1.3,1.6c0.8,1.2,1.5,2.4,2.1,3.8c0.5,1.3,0.9,2.7,1.2,4.1
							c0.1,0.4,0.2,0.7,0.2,1.1c-1.2-1.7-2.7-3.1-4.5-4c-1.1-0.6-1.6,0.9-0.6,1.5c2.9,1.9,5.2,5,6.1,8.6c0.9,3.6,0.2,7.2-1.5,10.3
							c-0.9,1.8-2.3,3.3-3.8,4.5c-0.1,0.1,0,0.2,0.1,0.1c3.4-1.3,5.9-4.4,6.8-8.3c0.9-3.9,0.1-8.1-1.9-11.5c0.1-0.8,0.1-1.7,0-2.5
							C392.8,176.7,392.4,175.2,391.8,173.8z"/>
					</g>
					<g>
						<path class="st6" d="M382.6,207.4c-3.4,2.5-5.4,6.7-5.5,11.3c0,2.3,0.4,4.6,1.4,6.7c1.2,2.6,3.1,4.7,4.8,6.9
							c2.1,2.6,4.1,5.6,4.3,9.2c0,0.7,1.1,0.8,1.2,0.1c0.7-5.9-4.3-9.6-7.4-13.7c0,0,0-0.1-0.1-0.2c-1-1.9-1.4-3.9-1.2-5.9
							c0.2-2,0.9-4.1,2.3-5.4c0,0,0-0.1-0.1-0.1c-1.6,1.3-2.8,3-3.2,5.3c-0.1,0.7-0.2,1.4-0.1,2.1c-1.1-3.2-1.2-6.7-0.2-9.9
							C379.5,211.4,380.9,209.1,382.6,207.4C382.7,207.5,382.7,207.4,382.6,207.4z"/>
					</g>
					<g>
						<path class="st6" d="M357.3,200.9c-5,0-7.8,5.4-8.8,10.1c-1.1,5.5-1.2,11.4-0.7,17c0.2,2.8,0.6,5.4,1.3,8.1
							c-0.2,0-0.4,0.1-0.4,0.4c-0.2,2.1-0.8,4.2-1.5,6.1c-0.4,0.9-0.8,1.8-1.3,2.7c-0.5,1-0.9,2-1.6,2.8c0,0,0,0,0,0
							c0.8-0.8,1.6-1.5,2.2-2.4c0.6-0.8,1-1.8,1.5-2.7c0.7-1.7,1.2-3.5,1.5-5.3c0,0,0,0,0,0c0,0,0,0,0,0c0.1-0.3,0.1-0.7,0.1-1
							c0-0.2-0.1-0.4-0.3-0.5c-0.4-5-0.9-10-0.6-15c0.1-2.6,0.4-5.3,0.8-7.8c0.4-2.4,1.1-4.9,2.4-6.9c1.4-2.2,3.4-3.6,5.8-4.1
							C358.6,202.3,358,200.9,357.3,200.9z"/>
					</g>
					<g>
						<path class="st6" d="M388.3,196.2c-3.6-4.3-9.7-7.1-14.4-4.1c-2,1.2-3.5,3.5-3.7,6c-0.1,1.3,0.2,2.6,0.1,3.9
							c-0.1,1.6-1.2,2.4-2.6,2c-1.6-0.5-2.8-2.1-4.4-2.7c-1.2-0.5-2.5-0.4-3.3,0.7c0,0,0,0.1,0.1,0.1c1.1-1.4,3.1-0.3,4.3,0.6
							c1.1,0.9,2,1.8,3.3,2.2c1.1,0.3,2.2,0.2,3-0.7c0.7-0.8,0.8-2,0.9-3c0-1.2-0.1-2.4,0.2-3.6c0.3-1.1,0.9-2,1.6-2.8
							c1.6-1.7,4-2.5,6.3-2.1c2.9,0.5,5.4,2.4,7.6,4.4C387.9,197.6,388.9,196.9,388.3,196.2z"/>
					</g>
					<g>
						<path class="st6" d="M398.8,201.5c-0.1,0-0.1,0.1,0,0.1c2,0.9,3.8,2.3,5,4.2c0,0,0,0,0,0c-0.8-0.2-1.6-0.4-2.4-0.5
							c-0.4,0-0.8-0.1-1.2-0.1c-0.4,0-0.9,0.2-1.3,0.1c-0.1,0-0.1,0.1,0,0.1c0.4,0.1,0.9,0.4,1.3,0.6c0.4,0.2,0.8,0.3,1.2,0.4
							c0.8,0.2,1.6,0.4,2.4,0.4c0.3,0,0.4-0.1,0.5-0.4c0,0.1,0.1,0.1,0.1,0.2c1.3,2.5,1.4,5.6,0.7,8.3c-0.3,1,1.2,1.8,1.5,0.8
							C408.5,210,404.8,202.5,398.8,201.5z"/>
					</g>
					<g>
						<path class="st6" d="M385.6,232.4c-0.8-1-1.6-1.9-2.5-2.8c-0.9-0.9-1.9-1.6-2.9-2.4c-0.1-0.1-0.2,0-0.1,0.1
							c1.6,1.3,2.8,3.3,3.9,5.1c1.1,1.8,1.9,3.7,2.6,5.6c1.4,3.9,2.1,8.2,1.7,12.3c-0.2,2.4-0.6,4.7-1.1,7c-0.2,1,1.4,1.6,1.8,0.7
							c1.9-3.9,2.3-8.7,1.8-13.2C390.2,240.5,388.4,235.9,385.6,232.4z"/>
					</g>
					<g>
						<path class="st6" d="M393,237.8c-1.4-2.2-2.4-4.4-2.9-7c-0.5-2.5-0.5-5.1-0.5-7.6c0,0,0,0,0,0c-1.7,4.2-0.7,9.2,1.3,13.3
							c1,2.1,2.5,4.2,3,6.6c0.4,1.9,0,3.9-1.3,5.1c-0.7,0.6,0.5,1.7,1.1,1.3c1.6-1.1,2.1-3.2,1.9-5.2
							C395.3,241.9,394.2,239.8,393,237.8z"/>
					</g>
					<g>
						<path class="st6" d="M342.9,221.9c-2.2,1.1-3.8,2.9-5,5.2c-0.6,1.2-1.1,2.4-1.4,3.7c0-0.1,0-0.2-0.1-0.2
							c-1-3.1-2.7-5.8-4.6-8.4c-0.1-0.1-0.2,0-0.2,0.1c1.3,2.7,2.2,5.7,3,8.6c0.9,3,1.3,6,2,9c0.1,0.5,0.9,0.8,1,0.1
							c0.2-1.5,0.1-3-0.1-4.6c0.2-0.1,0.3-0.2,0.3-0.4c0.6-2.3,1-4.6,1.9-6.7c0.9-2.1,2.1-4.1,3.4-5.9
							C343.4,222,343.1,221.8,342.9,221.9z"/>
					</g>
					<g>
						<path class="st6" d="M376.9,237c-1.6-2.7-3.8-4.8-6.4-6.2c-0.1-0.1-0.2,0.1-0.1,0.2c3.9,2.9,7,7.7,7.8,12.8
							c0.8,4.9-0.7,10-3.6,13.6c-0.8,1-1.6,1.8-2.6,2.6c0,0,0,0,0,0c-0.7,0.8-1.4,1.5-2.2,2.2c-0.4,0.4-0.8,0.9-1.3,1.2
							c0.3,0.5,0.9,0.8,1.4,0.7c2.4-0.6,4.5-2.5,6.1-4.4c1.6-2,2.8-4.4,3.5-7C380.9,247.5,379.7,241.7,376.9,237z"/>
					</g>
					<g>
						<path class="st6" d="M359.8,144.4c-0.7-1.2-1.3-2.3-2.3-3.2c-1.1-0.9-2.3-1.5-3.6-1.8c-2.5-0.5-5.6-0.2-7.3,1.9
							c-0.7,0.8,0.5,1.8,1.2,1.4c1.9-1,3.8-1.7,5.9-1.3c1,0.2,2.1,0.5,3,1c1,0.5,2.2,1.2,2.9,2.1
							C359.8,144.6,359.9,144.5,359.8,144.4z"/>
					</g>
					<g>
						<path class="st6" d="M371.2,152.1c-0.2-0.1-0.4,0-0.3,0.3c1.1,1.9,2,3.9,2.4,6.1c0.4,2.1,0.3,4.4-0.3,6.5
							c-0.2,0.7,0.8,1.4,1.2,0.6C376,161.3,375,155,371.2,152.1z"/>
					</g>
					<g>
						<path class="st6" d="M361.3,124.2c-0.4,0-0.9,0.1-1.3,0.3c-0.6-2-1.7-3.9-2.8-5.5c-1.2-1.8-2.7-3.4-4.3-4.8
							c-3.3-2.7-7.2-4.5-11.3-4.8c-2.2-0.2-4.4,0.2-6.5,0.9c0,0,0,0,0,0c-0.1-0.2-0.2-0.3-0.4-0.5c-0.4-0.4-0.7-0.7-1.1-1
							c-0.8-0.6-1.6-1.1-2.5-1.4c-1.8-0.7-3.7-1-5.6-0.7c-1.2,0.2-2.3,0.5-3.4,1.1c-0.1-0.1-0.2-0.1-0.4-0.2
							c-2.3-0.3-4.7,0.3-6.7,1.3c-2,1-3.8,2.5-5.1,4.4c-1,1.4-1.8,3.1-2.2,4.8c-0.5,0.6-0.9,1.3-1.2,2c-0.4,0.8-0.8,1.6-1.1,2.4
							c-0.7,1.7-1.1,3.5-1.4,5.3c-0.5,3.8,0.1,7.7,1.6,11.3c0.9,2,2,3.9,3.5,5.6c0.8,3,1.8,6,3.1,8.9c1.4,3.1,3,6.3,5.2,8.9
							c0.1,0.1,0.4,0.1,0.3-0.1c-1.2-2.7-2.6-5.2-3.8-8c-1.1-2.7-2-5.5-2.7-8.4c-1.4-5.7-2.2-11.6-2-17.4c0.1-2.9,0.4-5.7,0.8-8.5
							c0.2-0.6,0.5-1.2,0.8-1.8c0.5-0.8,1.1-1.6,1.8-2.2c0.4-0.3,0.8-0.6,1.2-0.9c0.2-0.1,0.4-0.2,0.5-0.4c0.1-0.1,0.1-0.3,0.3-0.3
							c0.2-0.1,0-0.4-0.2-0.4c-0.2,0-0.3-0.1-0.5-0.1c-0.3,0-0.5,0-0.7,0.1c-0.5,0.2-1,0.4-1.5,0.7c-0.4,0.2-0.8,0.5-1.2,0.9
							c0.2-0.4,0.5-0.7,0.7-1.1c1.3-1.7,2.9-3,4.7-3.9c0.9-0.5,1.8-0.8,2.8-1c0.3-0.1,0.6-0.1,1-0.2c-1.3,1.2-2.3,2.7-2.7,4.4
							c-0.2,0.7,0.8,1.6,1.3,0.9c0.9-1.4,2-2.9,3.2-4c1.3-1.1,2.9-1.9,4.5-2.3c1.6-0.4,3.2-0.3,4.8,0.1c0.8,0.2,1.6,0.5,2.4,0.8
							c0.4,0.2,0.8,0.4,1.1,0.6c0.4,0.2,1,0.5,1.3,0.8c0.1,0.1,0.2,0,0.1-0.1c-0.1-0.1-0.2-0.3-0.3-0.5c3.6-0.3,7.5,0.1,11,1.6
							c3.4,1.5,6.5,4,8.8,7.2c0.6,0.9,1.2,1.8,1.7,2.7c0.5,1,0.9,2.1,1.4,3.1c-0.9,0.2-1.9,0.3-2.9,0.4c-1,0.1-2,0-3.1-0.1
							c-0.5-0.1-1-0.2-1.6-0.3c-0.4-0.1-0.8-0.2-1.2-0.1c0,0,0,0.1,0,0.1c0.6,0.9,1.9,1.2,2.8,1.5c1.1,0.4,2.3,0.6,3.4,0.6
							c1.2,0.1,2.3,0,3.4-0.3c1-0.2,2.5-0.5,3.1-1.4C362.5,124.9,361.9,124.2,361.3,124.2z M307.3,136.2c0.3,2.6,0.7,5.2,1.4,7.7
							c-4-5.9-4.9-13.5-2.4-20.2c0.2-0.6,0.5-1.2,0.8-1.8c0,0.8,0.1,1.6,0.2,2.4C306.8,128.3,306.9,132.3,307.3,136.2z"/>
					</g>
					<g>
						<path class="st6" d="M326.7,112.8c-1.8,0.6-3.1,1.7-3.8,3.6c-0.4,0.9-0.5,1.9-0.5,2.9c0.1,0.9,0.2,2.3,1.1,2.8
							c0.3,0.1,0.7,0.1,0.8-0.2c0.2-0.7-0.3-1.6-0.4-2.4c-0.1-0.8,0-1.7,0.1-2.4c0.3-1.6,1.3-3.5,2.8-4.1
							C326.8,112.9,326.8,112.8,326.7,112.8z"/>
					</g>
				</g>
				<g>
					<path class="st6" d="M329.7,207.3c-0.5-1-1.1-2-1.6-3c-0.5-0.9-0.9-1.9-1.3-2.9c-0.9-2-1.7-4-2.4-6.1c-0.7-2.1-1.3-4.2-1.9-6.3
						c-0.5-2.1-1-4.3-1.6-6.4c0-0.1-0.3-0.2-0.3,0c0,2.2,0.4,4.3,0.8,6.5c0.5,2.2,1.1,4.3,1.7,6.5c0.7,2.1,1.5,4.2,2.4,6.2
						c0.9,2,1.8,4.1,3,6C328.9,208.5,330,208.1,329.7,207.3z"/>
				</g>
				<g>
					<path class="st6" d="M370.4,265.4c-3.1,5.7-9.8,8.8-16.1,7.3c-3.1-0.7-5.9-2.5-7.9-4.9c-2.4-2.9-3.7-6.4-4.9-9.9
						c-0.8-2.2-1.4-4.4-2-6.6c-0.3-1.1-0.6-2.2-0.9-3.4c-0.3-1.1-0.5-2.2-0.9-3.3c0-0.1-0.1-0.1-0.1,0c0,1,0.2,2.1,0.4,3.1
						c0.2,1.1,0.4,2.1,0.6,3.2c0.5,2.1,1,4.3,1.6,6.3c1.1,3.8,2.4,7.6,4.7,10.8c4.1,5.6,11.9,8.1,18.5,5.6c3.7-1.4,6.8-4.1,8.7-7.6
						C372.6,265.2,370.9,264.5,370.4,265.4z"/>
				</g>
				<g>
					<path class="st6" d="M317.9,171.1c-4-6.2-6.7-13.2-7.9-20.5c-0.3-2.1-0.5-4.2-0.7-6.3c0-0.2-0.4-0.2-0.4,0
						c-0.2,3.7,0.3,7.5,1.1,11.1c0.8,3.7,2.1,7.3,3.7,10.7c0.9,1.9,2,3.8,3.1,5.6C317.3,172.5,318.3,171.9,317.9,171.1z"/>
				</g>
				<g>
					<path class="st6" d="M365.4,218.7c-0.3-0.8-0.9-1.5-1.3-2.3c-0.5-0.7-1.1-1.4-1.7-2.1c-0.6-0.6-1.3-1.2-2-1.7
						c-0.7-0.5-1.5-0.8-2.2-1.2c0,0,0,0,0,0c1.4,0.8,2.7,2.1,3.7,3.3c0.5,0.6,1,1.2,1.5,1.9c0.5,0.7,0.8,1.5,1.2,2.3
						C364.8,219.4,365.6,219.2,365.4,218.7z"/>
				</g>
				<g>
					<path class="st6" d="M399.1,179.9c-0.5-1.4-1.1-2.8-1.9-4c-1.5-2.5-3.4-4.8-5.7-6.6c-0.7-0.5-1.3-1-2-1.4
						c-0.7-0.4-1.5-0.9-2.3-1.1c-0.5-0.1-0.7,0.5-0.3,0.8c0.7,0.6,1.6,0.9,2.3,1.4c0.7,0.5,1.4,1,2.1,1.5c1.4,1.2,2.7,2.4,3.9,3.9
						c1.1,1.4,2.1,2.9,2.9,4.6c0.8,1.6,1.5,3.4,1.9,5.2c0,0,0.1,0,0.1,0C399.8,182.7,399.6,181.3,399.1,179.9z"/>
				</g>
				<g>
					<path class="st6" d="M313.1,162.2c1.8,3.9,3.7,7.9,7,10.8c3,2.6,6.7,3.8,10.6,3.2c0.3,0,0.4,0.4,0.1,0.5
						c-3.4,1.6-7.6,0.7-10.7-1.3c0,1,0,2,0.1,3c0.1,1.5,0.2,3,0.3,4.5c0.3,3.1,0.9,6.2,1.8,9.2c1.7,6,4.5,11.7,8.2,16.7
						c2.1,2.9,4.5,5.5,7,8.1c0.6,0.6-0.4,1.8-1.1,1.3c-3.2-2.5-6-5.5-8.3-8.8c0.6,2.1,1.1,4.3,1.7,6.4c0.8,3.2,1.7,6.4,2.7,9.5
						c0.9,3.1,2,6.2,3.1,9.2c1.1,3.1,2.4,6.2,3.5,9.3c0.1,0.4-0.1,0.9-0.4,1.1c0.4,0.8,0.8,1.5,1.2,2.2c1.1,1.7,2.4,3.2,3.9,4.4
						c0.6,0.5-0.1,1.5-0.7,1.1c-1.7-1.3-3.1-2.9-4.2-4.8c-0.5-0.9-0.9-1.8-1.3-2.7c-0.1-0.3-0.2-0.7-0.4-1c-1.4-2.8-2.5-5.8-3.6-8.8
						c-1.1-3.1-2.1-6.1-3.1-9.3c-0.9-3.1-1.8-6.2-2.5-9.4c-0.7-3.2-1.4-6.5-1.6-9.8c-0.8-1.3-1.6-2.6-2.3-4
						c-3-5.8-4.8-12.2-5.4-18.7c-0.1-1.8-0.2-3.5-0.1-5.3c0.1-1.4,0.2-2.9,0.5-4.3c-3.8-2.8-6.2-7.3-7.8-11.7
						C311.1,162.1,312.6,161.1,313.1,162.2z"/>
				</g>
				<g>
					<path class="st6" d="M353.7,188.6c6-0.2,11-4.5,12.6-10.2c1.8-6.2-0.5-12.9-4.3-17.8c-2.3-2.9-5.2-5.5-8.2-7.6
						c-0.1-0.1,0-0.3,0.2-0.2c6.3,3.3,11.7,8.4,13.8,15.3c1.9,6.5,0.6,13.8-4.5,18.3c-2.6,2.3-6.1,3.8-9.7,3.5
						C352.6,189.9,352.9,188.6,353.7,188.6z"/>
				</g>
				<g>
					<path class="st6" d="M308.2,127.4c4.3,0.7,6.3,5.2,7.3,8.9c0.7,2.5,1.2,5,2.5,7.3c1.1,2,2.7,3.8,4.4,5.3c7.1,6,17,7.5,24,13.7
						c3.5,3.1,6.1,7.6,6.1,12.4c0,0.1-0.1,0.1-0.1,0c-0.4-9.8-10.5-14.7-18.2-18.2c-4-1.8-8.1-3.6-11.5-6.4
						c-1.6-1.3-3.2-2.8-4.4-4.5c-1.4-1.9-2.2-4-2.8-6.2c-1.3-4.4-2.6-10.2-7.8-11.2C307,128.4,307.5,127.2,308.2,127.4z"/>
				</g>
				<g>
					<path class="st6" d="M311.4,115.5c2.9-1.7,6.6,0.4,8.5,2.6c2.6,3,3.2,7.2,4.5,10.8c2.4,6.6,7,12.2,12.7,16.2
						c3.2,2.2,6.9,4,10.7,5c0.1,0,0,0.1,0,0.1c-6.6-1.2-12.5-4.5-17.2-9.4c-2.3-2.4-4.3-5.2-5.8-8.2c-1.7-3.4-2.4-7.1-3.9-10.5
						c-0.9-1.9-2.1-3.6-3.9-4.7c-1.7-1-3.4-1.1-5.3-0.7C311,116.9,310.9,115.8,311.4,115.5z"/>
				</g>
				<g>
					<path class="st6" d="M344.7,169.1c1-2.7,0.1-5.4-1.8-7.5c-0.4-0.4,0.3-1.1,0.7-0.8c2.6,1.8,3,5.8,1.2,8.4
						C344.8,169.3,344.7,169.2,344.7,169.1z"/>
				</g>
				<g>
					<path class="st6" d="M341.1,179.4c2.1,1.2,3.9,2.6,5.6,4.3c0.8,0.8,1.6,1.7,2.4,2.6c0.7,0.9,1.5,1.9,1.8,3
						c0.1,0.2-0.1,0.4-0.3,0.3c-0.8-0.7-1.4-1.5-2.1-2.4c-0.8-0.9-1.5-1.8-2.4-2.6c-1.7-1.7-3.5-3.2-5.4-4.6
						C340.2,179.8,340.6,179.1,341.1,179.4z"/>
				</g>
				<g>
					<path class="st6" d="M346.3,199.9c3.6-3,9.1-4.2,13.6-3.1c0,0,0,0.1,0,0.1c-2.3,0-4.7,0.3-6.9,1c-2.2,0.7-4.1,1.9-6,3.2
						C346.2,201.5,345.7,200.4,346.3,199.9z"/>
				</g>
				<g>
					<path class="st6" d="M375.9,191c0.8-0.7,1.6-1.2,2.3-2c0.6-0.9,1.1-1.8,1.3-2.9c0.4-2.5-0.6-4.6-2.1-6.5c0,0,0-0.1,0.1-0.1
						c2.3,1.2,3.4,4.2,3.1,6.7c-0.2,2.3-1.8,5.2-4.2,5.9C375.6,192.3,375.4,191.4,375.9,191z"/>
				</g>
				<g>
					<path class="st6" d="M363.9,153.7c3,0.2,5.7,2.2,7.4,4.5c1.1,1.5,1.9,3.1,2.3,4.9c0.1-0.3,0.3-0.5,0.5-0.8
						c0.4-0.7,1.2-0.1,0.9,0.6c-0.4,0.8-0.8,1.6-1,2.5c0,0.5,0,0.9,0,1.4c0,0.2-0.2,0.4-0.4,0.5c-0.2,1.1-0.2,2.3,0,3.5
						c0.2,1.3,0.5,2.6,1,3.8c0.3,0.6,0.6,1.2,0.9,1.7c0.3,0.6,0.6,1.2,1,1.8c0,0,0,0.1,0,0c-0.7-0.4-1.2-0.7-1.7-1.3
						c-0.4-0.5-0.8-1.1-1.1-1.8c-0.7-1.3-1.1-2.7-1.3-4.2c-0.2-1.9-0.1-3.8,0.5-5.6c-0.3-2.2-1.1-4.4-2.4-6.3
						c-0.8-1.2-1.8-2.1-2.9-3C366.3,155,365.1,154.4,363.9,153.7C363.8,153.7,363.9,153.7,363.9,153.7z"/>
				</g>
				<g>
					<path class="st6" d="M314.6,155.8c3,1.6,6.2,2.8,9.5,3.4c1.3,0.2,3.5,0.7,4.5-0.4c1.5-1.6-1.1-3.7-2.3-4.4c0,0,0-0.1,0.1-0.1
						c1.6,0.8,3.5,1.7,3.3,3.8c-0.1,1.9-2,2.6-3.6,2.6c-2.1,0.1-4.3-0.4-6.2-0.9c-2.2-0.6-4.2-1.5-6.1-2.8
						C313.1,156.5,313.9,155.4,314.6,155.8z"/>
				</g>
				<g>
					<path class="st6" d="M321.9,165.3c4.3,2.5,9.5,0.8,14,2.2c1.9,0.6,3.7,1.7,4.7,3.5c1,1.7,0.9,3.9,0,5.6c-1,2-3.2,3.3-5.4,3.1
						c-0.6-0.1-0.4-0.9,0.1-1c2.5-0.2,4.7-1.9,4.9-4.5c0.2-2.7-1.8-4.7-4.1-5.6c-4.6-1.8-10.2-0.1-14.3-3.3
						C321.8,165.4,321.8,165.3,321.9,165.3z"/>
				</g>
			</g>
			<g>
				<g>
					<g>
						<path class="st6" d="M263.4,150.7c-0.3-1.9-0.2-3.8,0.3-5.6c0.9-3.6,3.2-6.3,6.4-7.6c1.8-0.7,3.7-1.1,5.6-0.8c0,0,0,0,0,0
							c-2.1,0-4.2,0.5-5.9,1.7c-1.6,1.1-2.9,2.7-3.9,4.5c-0.9,1.8-1.3,3.8-1.3,5.9c0,1,0.2,2.1,0.4,3.1c0.3,1.1,0.8,2.1,1.1,3.1
							c0.2,0.6-0.5,1.4-1,0.8C264.1,154.5,263.6,152.5,263.4,150.7z"/>
					</g>
					<g>
						<path class="st6" d="M243.5,202.3c-0.8-2.5-1.1-5.2-1.1-7.8c0.1-2.7,0.6-5.2,1.6-7.6c0.9-2.2,2.3-4.4,4.2-5.5
							c-1.3-1.5-2.1-3.5-2.7-5.4c-0.6-2-0.9-4.1-0.8-6.2c0.1-4.1,1.7-8,4.2-10.9c1.4-1.6,3.1-3.2,5.1-3.9c1.1-0.4,1.4,1.4,0.6,1.9
							c-0.9,0.5-1.9,1-2.8,1.6c-0.9,0.6-1.7,1.4-2.4,2.2c-1.4,1.7-2.4,3.7-3,5.9c-0.6,2.4-0.7,5-0.3,7.5c0.4,2.6,1.5,4.8,2.6,7.1
							c0.1,0,0.2-0.1,0.3-0.1c2.1-1,4.8-0.8,6.7,0.8c1.8-0.6,4.1-1.2,5.3-3c1.1-1.6,0.9-3.6,0.5-5.5c-0.9-3.8-2.8-7.6-1.5-11.5
							c1.6-4.5,5.9-5.9,9.9-7c2.5-0.7,5-1.2,7.2-2.7c1.9-1.3,3.3-3.3,3.4-5.8c0-0.1,0.1-0.1,0.1,0c0.3,4.2-2.8,7.3-6,8.7
							c-2.3,1-4.7,1.6-7.1,2.4c-1.9,0.7-3.7,1.7-5.1,3.1c-1.4,1.4-2.1,3.2-1.9,5.3c0.2,2,0.9,4,1.5,6c0.6,1.7,1,3.6,0.8,5.4
							c-0.3,2-1.5,3.6-3,4.6c-3.1,2-8.9,2.2-8.6,7.5c0,0.6-0.9,1-1.1,0.3c-0.8-1.8,0.1-3.7,1.2-5c1.1-1.3,2.6-2.1,4.2-2.7
							c-1.8-0.7-3.9-0.9-5.6,0c-2,1-3.3,3.4-4.1,5.6c-1.6,4.2-1.7,9-0.4,13.5c0.3,1.2,0.8,2.4,1.3,3.6c0.3,0.6,0.6,1.2,0.9,1.7
							c0.4,0.6,0.8,1.2,1,1.8c0.2,0.7-0.3,1.6-1,1.1c-1-0.7-1.6-2.1-2.2-3.2C244.4,204.8,243.9,203.6,243.5,202.3z"/>
					</g>
					<g>
						<path class="st6" d="M251.9,174.6c0.8-0.9,1.8-1.5,3-1.7c-0.6-0.5-1.1-1.1-1.6-1.8c-0.6-0.9-1.2-1.8-1.6-2.8
							c-0.2-0.5-0.3-1-0.4-1.5c-0.1-0.6,0-1,0-1.6c0,0,0,0,0.1,0c0.1,0.3,0.3,0.6,0.4,0.9c0.1,0.2,0.1,0.4,0.2,0.6
							c0.2,0.5,0.4,0.9,0.6,1.4c0.4,0.9,1,1.7,1.6,2.4c0.6,0.7,1.3,1.3,2.1,1.8c0.4,0.3,0.8,0.5,1.2,0.7c0.3,0.1,0.6,0.2,0.9,0.3
							c0.2,0.1,0.4,0.1,0.6,0.2c0.2,0.1,0.4,0.3,0.4,0.5c0.1,0.1,0.1,0.1,0.2,0.2c0.4,0.5-0.1,1.5-0.7,1.2c-0.2-0.1-0.4-0.2-0.6-0.3
							c-0.3-0.1-0.6-0.3-0.9-0.4c-0.6-0.3-1.1-0.5-1.8-0.6c-1.2-0.1-2.4,0.1-3.4,0.8C252,174.9,251.9,174.7,251.9,174.6z"/>
					</g>
					<g>
						<path class="st6" d="M249.1,195.1c0-0.2,0.2-0.4,0.4-0.5c-0.1-0.3-0.1-0.6-0.2-0.9c0-0.6,0.6-0.8,1-0.4
							c0.5,0.5,0.7,1.3,1.1,1.9c0.4,0.6,0.8,1.2,1.3,1.7c1,1.1,2.2,2.1,3.5,2.6c0.1,0,0.1,0.2-0.1,0.2c-1.5-0.3-3-0.8-4.3-1.9
							c-0.4-0.4-0.9-0.8-1.3-1.3c0.1,1.1,0.2,2.2,0.6,3.3c0.5,1.5,1.4,2.8,2.5,3.9c1,1,2.1,1.8,3.4,2.3c1.3,0.5,2.5,0.6,3.8,0.9
							c0.3,0.1,0.2,0.5,0,0.6c-2.7,0.8-6-0.7-8.1-2.8C250.4,202.4,248.6,198.4,249.1,195.1z"/>
					</g>
					<g>
						<path class="st6" d="M250.6,233.7c-1.6-1.8-2.4-4.4-3-6.7c-1.1-4.7-1.4-9.6-0.8-14.2c0.2-1.3,0.4-2.5,0.7-3.8
							c0.3-1.3,0.8-2.4,1.3-3.6c0-0.1,0.2,0,0.1,0.1c-0.4,2.1-0.6,4.2-0.8,6.3c-0.2,2.1-0.2,4.3-0.1,6.4c0.1,2.1,0.4,4.2,0.8,6.3
							c0.5,2.2,1,4.5,2.1,6.4c0.6,0.9,1.3,1.7,2.1,2.3c0.7,0.5,1.3,0.6,2,0.7c-0.1-0.9-0.3-1.7-0.8-2.6c-0.1-0.3,0.2-0.7,0.4-0.5
							c2.3,1.9,1.8,5.6,1.5,8.2c-0.3,2.7-0.1,5.4,0.9,8c0.9,2.5,2.3,4.9,4.2,6.7c2,1.9,4.3,2.8,6.7,3.7c1.9,0.7,3.8,1.5,5.3,3
							c-0.2-1.1-0.3-2.2-0.4-3.3c0-0.1,0.1-0.2,0.2-0.1c0.7,2.3,1.7,4.5,2.7,6.6c1.1,2.2,2.2,4.3,3.7,6.3c2.4,3.3,5.7,6.5,9.7,7
							c1.7,0.2,3.4,0,4.9-0.8c-0.7-1.3-1.1-2.7-1.6-4.1c0-0.1,0.1-0.2,0.1-0.1c0.6,1.3,1.5,2.5,2.4,3.6c0,0,0.1-0.1,0.1-0.1
							c0.9-0.7,1.7,0.7,1.2,1.6c0.2,0.2,0.3,0.3,0.5,0.5c1.6,1.6,3.4,3,5.3,3.9c4.2,2,8.8,2.2,12.9,0.4c2.3-1,4.3-2.6,6-4.6
							c0.4-0.4,1.1-0.5,1.5,0c0.4,0.6,0.2,1.2-0.1,1.7c-3.1,4.1-8,6.4-13,6.4c-4.8,0-9.4-2.2-12.9-6c-0.4-0.5-0.8-1-1.2-1.5
							c-3.2,2.3-7.7,1.6-11.2-0.6c-4-2.6-7.1-7.1-9.1-11.6c-0.3-0.7-0.6-1.4-0.8-2.1c-0.3,0.1-0.6,0.1-0.8-0.3
							c-1.4-2.2-3.7-3.2-5.9-4c-2.4-0.9-4.7-1.9-6.7-3.7c-4-3.6-6.6-8.9-6.4-14.4c0.1-1.7,0.6-3.5,0.8-5.3
							C253.5,236.2,251.7,234.9,250.6,233.7z"/>
					</g>
					<g>
						<path class="st6" d="M318.1,276c1.7,0.6,3.5,1.1,5.3,1.1c1.7,0,3.4-0.5,4.8-1.4c1.4-0.8,2.6-2.1,3.5-3.5
							c0.5-0.8,0.9-1.6,1.2-2.5c0.1-0.3,0.2-0.6,0.3-0.9c-2.7,1.1-5.9,1-8.4-0.6c-0.9-0.6-0.2-2.2,0.8-1.9c1.8,0.6,3.5,1.1,5.3,0.8
							c1.7-0.2,3.3-0.9,4.6-2c2.7-2.3,4-6.4,3.4-10.2c0-0.2,0.2-0.2,0.2-0.1c1.2,4.2,0.2,8.8-2.6,11.7c-0.7,0.7-1.5,1.3-2.4,1.8
							c0,0.6-0.1,1.2-0.2,1.7c-0.2,1.1-0.5,2.1-1,3c-0.9,1.9-2.2,3.5-3.8,4.6c-3.2,2.3-8.4,2.7-11.8,0.1
							C316.6,277.1,317.2,275.7,318.1,276z"/>
					</g>
					<g>
						<path class="st6" d="M318.9,203.7c-2-2.1-4.3-4.1-6.6-5.8c-0.1-0.1,0-0.3,0.1-0.2c2.9,1.4,5.5,3.4,7.8,5.7
							c-0.2-0.5-0.3-1.1-0.4-1.6c-0.5-1.9-0.8-3.7-1.1-5.6c-0.5-3.7-0.8-7.4-1.3-11.1c-0.9-6.7-2.6-13.7-7.4-18.7
							c-2.2-2.3-5.1-4.1-8.1-4.5c-0.3,0-0.3-0.5,0-0.5c5.5,0.3,10.1,4.6,12.9,9.6c3.8,6.8,4.4,14.8,5.5,22.3
							c0.3,2.2,0.7,4.3,1.1,6.5c0.2,1.1,0.5,2.1,0.7,3.2c0.3,1.1,0.7,2.2,0.9,3.3c0,0.1,0,0.3,0,0.4c3.8,4.7,6.5,10.4,7.9,16.2
							c0.7,3,1.3,6.2,1.1,9.3c0,0.6-0.6,0.9-1,0.9c5.2,4.9,8.4,12.8,7.3,19.9c0,0.1-0.1,0.1-0.1,0c-0.6-3.7-1.5-7.4-3.2-10.8
							c-1.7-3.4-3.9-6.5-6.6-9c-0.8-0.8,0-2.4,0.9-1.7c0.4,0.3,0.8,0.6,1.2,1c0-0.1,0-0.1,0-0.2c-0.2-2.6-0.3-5.2-0.9-7.8
							c-0.5-2.6-1.3-5.1-2.3-7.6C325.3,212.1,322.4,207.5,318.9,203.7z"/>
					</g>
					<g>
						<path class="st6" d="M268.3,178.9c-0.1-1-0.2-2.1-0.2-3.1c0.1-2,0.5-4,1.2-5.8c0.7-1.8,1.9-3.4,3.2-4.7
							c0.4-0.3,0.7-0.6,1.1-0.9c-1.2,0.3-2.4,0.5-3.6,0.7c-0.9,0.1-1-1.2-0.3-1.5c4.9-1.8,10.2-2.6,15.1-4.3
							c4.2-1.5,7.7-4.2,9.9-8.4c1.1-2.2,2-4.6,2.2-7.2c0,0,0.1-0.1,0.1,0c-0.1,4.7-1.6,9-4.5,12.3c-3.5,4-8.4,5.7-13.2,7
							c-0.9,0.2-1.8,0.5-2.7,0.7c-0.1,0.1-0.2,0.2-0.4,0.3c-0.3,0.2-0.7,0.5-1,0.7c-0.7,0.5-1.3,1.1-1.9,1.7
							c-1.2,1.2-2.1,2.6-2.7,4.3c-0.6,1.6-1,3.3-1,5.1c0,0.9,0,1.8,0.2,2.6c0.1,0.9,0.6,1.9,0.4,2.8c-0.1,0.4-0.6,0.7-1,0.4
							C268.5,181.1,268.4,179.8,268.3,178.9z"/>
					</g>
					<g>
						<path class="st6" d="M284.5,129.7c3-3.1,7.3-4,11.3-2.4c2.2,0.9,4.3,2.3,5.8,4.4c0.4,0.6-0.3,1.5-0.9,0.9
							c-2.7-3-6.2-4.5-9.9-4.1c-3.7,0.4-6.5,2.9-7.9,6.4c-0.8,2-1.2,4.3-1.1,6.5c0,0-0.1,0.1-0.1,0
							C280.3,137.2,281.7,132.7,284.5,129.7z"/>
					</g>
					<g>
						<path class="st6" d="M269.3,142.7c-0.1-0.4,0.3-0.8,0.7-0.7c0.5,0.1,0.9,0.7,1.4,1.1c0.5,0.3,1.1,0.6,1.6,0.7
							c1.2,0.3,2.4,0.2,3.5-0.3c0.1-0.1,0.2,0.1,0.1,0.2c-0.9,1-2.3,1.5-3.7,1.4c0.2,0.4,0.4,0.9,0.6,1.4c0.3,1,0.5,2.3,0,3.1
							c0,0.1-0.1,0.1-0.1,0c-0.4-0.8-0.5-1.8-0.9-2.6c-0.4-0.9-1-1.7-1.6-2.5c0-0.1-0.1-0.1-0.1-0.2
							C270.1,143.9,269.4,143.4,269.3,142.7z"/>
					</g>
					<g>
						<path class="st6" d="M268.4,138.3c0.3-0.6,0.9-1.1,1.3-1.7c0.4-0.6,0.8-1.2,1.2-1.9c0.7-1.3,1.4-2.8,1.7-4.3c0,0,0,0,0,0
							c-0.2,1.6-0.5,3.1-1.1,4.6c-0.3,0.8-0.7,1.5-1.1,2.1c-0.4,0.6-0.8,1.4-1.5,1.7C268.5,139.1,268.2,138.7,268.4,138.3z"/>
					</g>
					<g>
						<path class="st6" d="M269.4,192.7c0.3-2.2,0.4-4.6,0.1-6.9c-0.1-1.1-0.2-2.3-0.4-3.4c-0.2-1.2-0.5-2.3-0.7-3.5
							c0-0.3,0.1-0.6,0.4-0.7c0,0,0,0,0,0c-0.1-0.6,0.7-1.1,1-0.4c1.1,2.6,2.4,5.1,4.2,7.2c1.9,2.1,4.2,3.9,6.6,5.1
							c0.1,0,0,0.2,0,0.1c-2.7-0.8-5.1-2.2-7.2-4.4c-1-1-2-2.2-2.7-3.4c0.2,1.1,0.3,2.2,0.2,3.3c-0.1,2.4-0.5,4.8-1.3,7.1
							C269.5,192.8,269.4,192.8,269.4,192.7z"/>
					</g>
					<g>
						<path class="st6" d="M298.1,195.8c0.6-4,3.1-7.4,6.6-8.8c1.9-0.8,4.1-0.9,6.1-0.4c2,0.5,4.3,1.6,5.6,3.4
							c0.4,0.6-0.2,1.5-0.8,1.1c-1.5-1.1-2.9-2.2-4.7-2.7c-1.7-0.5-3.4-0.5-5.1-0.1c-3.3,0.9-5.8,4.1-6.5,7.7
							c-0.8,4.3,1.3,8.7,3.9,11.9c2.8,3.5,6.4,5.9,9.8,8.5c1.9,1.4,3.8,2.9,5.6,4.5c0.8,0.8,1.7,1.6,2.4,2.5c0.8,1,1.5,2.1,2.2,3.1
							c0,0.1,0,0.2-0.1,0.1c-1.3-1.9-3.3-3.5-5-5c-1.8-1.5-3.7-2.8-5.6-4.1c-3.8-2.6-7.7-5.3-10.6-9.1
							C299.3,205,297.5,200.3,298.1,195.8z"/>
					</g>
					<g>
						<path class="st6" d="M311.2,202.1c0.8-0.2,1.6-0.5,2.4-0.7c0.8-0.1,1.7-0.1,2.5,0.1c1.7,0.3,3.3,1,4.7,2.3
							c0.5,0.5-0.2,1.3-0.7,1c-1.4-0.8-2.7-1.5-4.2-2C314.3,202.3,312.7,201.9,311.2,202.1C311.1,202.2,311.1,202.1,311.2,202.1z"/>
					</g>
					<g>
						<path class="st6" d="M309.8,255.9c-1.4-4.7-0.3-9.8,3.4-12.4c2-1.3,4.4-1.8,6.7-0.8c0.7,0.3,0.4,1.5-0.4,1.3
							c-3.6-1-7.4,1.1-8.6,4.9c-1.2,4,0.3,8.5,3,11.6c0.8,1,1.7,1.8,2.7,2.5c1,0.7,2,1.6,3.1,2c0.1,0,0,0.1,0,0.1
							c-1.1-0.4-2.2-0.6-3.2-1.2c-1-0.6-2-1.3-2.9-2.2C311.9,260.3,310.6,258.3,309.8,255.9z"/>
					</g>
					<g>
						<path class="st6" d="M316.7,250.7c-0.1-0.5,0.5-0.9,0.9-0.5c0.6,0.6,1,1.4,1.5,2c0.6,0.7,1.1,1.3,1.8,1.9
							c1,0.9,2.1,1.7,3.3,2.3c-0.4-0.6-0.7-1.2-0.9-1.8c-0.3-0.8-0.5-1.7-0.5-2.5c0-0.9,0.2-1.7,0.4-2.6c0-0.1,0.1,0,0.1,0
							c-0.2,1.5,0.5,3.2,1.1,4.6c0.6,1.4,1.6,2.3,2.5,3.3c2.8,0.7,6,0.5,8.5-0.8c0.1,0,0.1,0.1,0.1,0.1c-1.6,1-3.3,1.8-5.1,2
							c-1.2,0.2-2.4,0.1-3.5-0.1c-0.1,0-0.1,0-0.2,0c0,0,0,0,0,0c-0.6-0.1-1.2-0.3-1.8-0.5c-1.7-0.6-3.4-1.5-4.8-2.8
							C318.6,254.1,317.2,252.6,316.7,250.7z"/>
					</g>
					<g>
						<path class="st6" d="M306,162.2c0.4-0.6,0.9-0.9,1.4-1.4c0.4-0.5,0.8-1.1,1.1-1.7c0.7-1.3,1.1-2.8,1.1-4.3c0,0,0.1-0.1,0.1,0
							c0.2,1.6,0.2,3.1-0.3,4.6c-0.2,0.8-0.5,1.5-1,2.1c-0.4,0.6-0.9,1.5-1.6,1.8C306.3,163.6,305.6,162.9,306,162.2z"/>
					</g>
					<g>
						<path class="st6" d="M269.5,202.6c-0.9-0.5-1.8-1-2.6-1.6c-3.1-2.2-6.2-5.6-7.6-9.5c-0.3-0.8,0.7-1.6,1.2-0.7
							c1.6,3,3.5,5.5,6.1,7.5c0.9,0.7,1.9,1.3,3,1.9c0.2,0,0.5,0.1,0.6,0.3c1.5,0.7,3.1,1.2,4.7,1.5c3.3,0.6,7.3,0.2,9.8-2
							c2.3-2,3.5-5.4,3-8.7c-0.6-4-3.5-7.4-7-8.8c-0.3-0.1-0.2-0.7,0.2-0.6c3.4,0.9,6.2,3.8,7.3,7.4c1.2,3.5,0.6,7.5-1.2,10.4
							c-3.4,5.2-9.8,5.7-15.4,3.7c1.4,4.1,1.2,8.8-0.9,12.3c0,0.1-0.2,0-0.1-0.1C271.7,211.4,271.4,206.7,269.5,202.6z"/>
					</g>
					<g>
						<path class="st6" d="M271.1,242.1c-0.7-4.3,0.5-8.6,3.2-11.7c1.4-1.6,3.2-2.8,5.3-3.2c0.1,0,0.1,0.1,0,0.1
							c-3,1.8-5.5,4.3-6.5,7.9c-1,3.6-0.3,7.6,1.4,11c1,2,2.4,3.6,4.1,5c0.3,0.3,0.1,1-0.3,0.8C274.7,250.3,271.8,246.2,271.1,242.1
							z"/>
					</g>
					<g>
						<path class="st6" d="M253.6,214.1c-0.3-1.5-0.4-3-0.3-4.4c0-0.8,0.1-1.5,0.2-2.2c0.1-0.7,0.2-1.5,0.7-2.1
							c0.3-0.3,0.8-0.2,0.9,0.3c0.1,0.7-0.2,1.3-0.3,1.9c-0.1,0.7-0.2,1.4-0.2,2.1c-0.1,1.4,0,2.9,0.3,4.3c0.3,1.4,0.7,2.8,1.2,4.1
							c0.1,0.4,0.3,0.7,0.4,1.1c0.1-2.1,0.6-4.1,1.6-5.8c0.6-1,1.8-0.1,1.4,1c-1.4,3.2-1.7,7-0.5,10.5c1.2,3.5,3.7,6.2,6.8,7.9
							c1.7,1,3.7,1.6,5.6,1.8c0.1,0,0.1,0.1,0,0.2c-3.6,0.7-7.4-0.6-10.2-3.3c-2.9-2.8-4.5-6.7-4.6-10.7c-0.5-0.6-1-1.3-1.4-2.1
							C254.4,217,253.9,215.6,253.6,214.1z"/>
					</g>
					<g>
						<path class="st6" d="M279.5,237.5c4.2,0.3,8.2,2.7,10.7,6.6c1.2,1.9,2.1,4.1,2.4,6.4c0.4,2.8,0,5.6-0.3,8.4
							c-0.3,3.3-0.4,7,1.3,10c0.3,0.6-0.5,1.3-0.9,0.8c-3.8-4.5-1.5-10.4-1.1-15.6c0,0,0-0.1,0-0.2c-0.2-2.1-0.9-4-2.2-5.6
							c-1.3-1.6-3-2.9-4.9-3.3c-0.1,0,0-0.1,0-0.1c2.1,0.2,4,1,5.5,2.7c0.5,0.5,0.9,1.1,1.2,1.7c-0.8-3.3-2.6-6.3-5.1-8.4
							c-1.9-1.7-4.3-2.9-6.6-3.2C279.4,237.6,279.4,237.5,279.5,237.5z"/>
					</g>
					<g>
						<path class="st6" d="M297.4,218.4c4.2-2.7,9.5,0.3,12.8,3.8c3.9,4,7.1,9,9.8,14c1.3,2.4,2.4,4.9,3.3,7.5
							c0.2-0.1,0.4-0.1,0.5,0.1c1.3,1.7,2.9,3.1,4.6,4.3c0.8,0.6,1.7,1.1,2.5,1.6c0.9,0.5,1.8,1.2,2.8,1.6c0,0,0,0,0,0
							c-1-0.2-2.1-0.4-3.2-0.8c-0.9-0.4-1.8-0.9-2.7-1.5c-1.5-1-2.9-2.3-4.2-3.7c0,0,0,0,0,0c0,0,0,0,0,0c-0.2-0.3-0.4-0.5-0.7-0.8
							c-0.1-0.2-0.1-0.4-0.1-0.6c-2.3-4.4-4.6-8.9-7.5-13c-1.5-2.2-3.2-4.2-4.9-6.2c-1.7-1.8-3.5-3.5-5.7-4.6
							c-2.4-1.1-4.8-1.2-7.1-0.3C297,220.2,296.8,218.8,297.4,218.4z"/>
					</g>
					<g>
						<path class="st6" d="M289.7,242.7c-0.1-0.5,0.3-1,0.8-0.8c0.4,0.2,0.8,0.6,1.2,0.8c0.4,0.2,0.9,0.4,1.3,0.4
							c0.9,0.1,1.8-0.1,2.6-0.5c2-1.1,3.2-3.4,4.7-5.2c1.3-1.6,3.1-3.2,5.3-3.2c1.7,0,3.5,1.1,4.1,2.9c0,0,0,0.1-0.1,0
							c-1.2-2.1-3.8-2.3-5.5-1.4c-2.1,1.1-3.3,3.4-4.7,5.2c-1.3,1.7-2.9,3.3-5,3.6C292.9,244.9,290.2,244.6,289.7,242.7z"/>
					</g>
					<g>
						<path class="st6" d="M268.6,231.1c0.7-5.6,4.3-11.1,9.9-11.2c2.3,0,4.9,1,6.3,3.1c0.7,1,1.2,2.3,2,3.3c1,1.3,2.3,1.4,3.3,0.3
							c1.1-1.3,1.2-3.3,2.2-4.6c0.8-1.1,1.9-1.7,3.2-1.2c0.1,0,0,0.1,0,0.1c-1.7-0.5-2.8,1.4-3.3,2.8c-0.4,1.3-0.7,2.6-1.6,3.7
							c-0.7,0.9-1.8,1.4-2.9,1c-1-0.3-1.8-1.2-2.4-2.1c-0.7-1-1.3-2.1-2.1-2.9c-0.8-0.8-1.8-1.3-2.8-1.5c-2.3-0.6-4.7,0-6.4,1.6
							c-2.2,2-3.3,4.9-4,7.8C269.7,232.1,268.5,232.1,268.6,231.1z"/>
					</g>
					<g>
						<path class="st6" d="M262.7,241.2C262.8,241.1,262.8,241.2,262.7,241.2c-1.1,1.9-1.8,4.1-1.8,6.4c0,0,0,0,0,0
							c0.5-0.6,1.1-1.2,1.8-1.7c0.3-0.2,0.6-0.5,0.9-0.7c0.3-0.2,0.8-0.3,1.1-0.6c0.1,0,0.1,0.1,0.1,0.1c-0.3,0.3-0.5,0.8-0.7,1.2
							c-0.2,0.3-0.5,0.6-0.8,0.9c-0.5,0.6-1.1,1.2-1.8,1.7c-0.2,0.2-0.5,0.1-0.6-0.1c0,0.1,0,0.1,0,0.2c0.3,2.8,1.8,5.5,3.9,7.4
							c0.7,0.7,0,2.1-0.8,1.5C259.1,253.6,258.2,245.3,262.7,241.2z"/>
					</g>
					<g>
						<path class="st6" d="M290.4,260.2c0.1-1.3,0.3-2.5,0.6-3.7c0.3-1.2,0.8-2.4,1.1-3.6c0-0.1,0.2-0.1,0.1,0
							c-0.6,2-0.6,4.3-0.5,6.4c0.1,2.1,0.4,4.1,0.8,6.2c0.9,4.1,2.6,8,5.1,11.3c1.5,1.9,3,3.7,4.8,5.3c0.8,0.7-0.3,2.1-1.1,1.5
							c-3.7-2.3-6.6-6.1-8.6-10.2C290.9,269.4,290,264.7,290.4,260.2z"/>
					</g>
					<g>
						<path class="st6" d="M287.1,268.7c0-2.6-0.4-5-1.3-7.4c-0.9-2.4-2.3-4.6-3.7-6.7c0,0,0,0,0,0c3.7,2.6,5.5,7.4,6,11.9
							c0.3,2.3,0.2,4.9,1,7.1c0.7,1.8,2.1,3.3,3.8,3.6c0.9,0.2,0.5,1.7-0.3,1.7c-1.9,0-3.5-1.5-4.4-3.4
							C287.3,273.4,287.1,271.1,287.1,268.7z"/>
					</g>
					<g>
						<path class="st6" d="M280.3,208.6c4.1,1.7,8.3,3.2,12.6,3.7c2.1,0.2,4.2,0.3,6.3,0.1c1.1-0.1,2.1-0.3,3.2-0.5
							c0.5-0.1,1-0.2,1.5-0.4c0.6-0.1,1.1-0.5,1.6-0.6c0.8-0.1,1.1,1.1,0.4,1.4c-0.5,0.3-1.1,0.3-1.6,0.4c-0.6,0.1-1.1,0.3-1.7,0.4
							c-1,0.2-2.1,0.3-3.1,0.4c-2.2,0.2-4.4,0.2-6.6-0.1c-4.4-0.5-8.8-1.8-12.6-4.6C280.1,208.7,280.2,208.5,280.3,208.6z"/>
					</g>
					<g>
						<path class="st6" d="M285.9,179c1.1-1.9,2.6-3.5,4.4-4.7c3.5-2.3,7.9-3,12-1.5c0.1,0,0,0.2-0.1,0.2c-3.9-0.9-8-0.2-11.2,2
							c-1.6,1.1-3,2.5-4,4.2c-0.5,0.9-1,1.8-1.2,2.9c-0.3,1-0.3,2.1-0.4,3.2c0,0.3-0.5,0.6-0.7,0.2C284,183.3,284.9,180.8,285.9,179
							z"/>
					</g>
					<g>
						<path class="st6" d="M320.8,228.3c2.4-0.3,4.7,0.4,7,1.7c1.1,0.7,2.2,1.4,3.2,2.4c0-0.1,0-0.2-0.1-0.2
							c-0.8-3.2-0.8-6.4-0.7-9.5c0-0.1,0.2-0.2,0.2,0c0.3,3,1.2,5.9,2.1,8.8c0.9,3,2.2,5.8,3.2,8.7c0.2,0.5-0.4,1.2-0.8,0.7
							c-1-1.2-1.7-2.5-2.4-3.9c-0.2,0-0.4,0-0.5-0.2c-1.7-1.6-3.3-3.3-5.2-4.7c-1.9-1.3-4-2.3-6-3.2
							C320.5,228.7,320.6,228.4,320.8,228.3z"/>
					</g>
					<g>
						<path class="st6" d="M287.6,176.9c1.4-1.6,3.6-2,5.6-2c2.1,0,4,0.7,5.7,2.3c0,0,0,0.1,0,0.1c-1.7-0.8-3.7-1.2-5.5-1.1
							c-1.9,0.1-3.5,1-5.2,1.7C287.5,178.1,287.2,177.3,287.6,176.9z"/>
					</g>
					<g>
						<path class="st6" d="M285.9,158.9c1.1-0.8,1.9-1.7,2.5-2.9c0.6-1.4,0.7-3,0.7-4.5c0-1.7-0.1-3.3,0-5c0-1.9,0.3-3.7,0.3-5.5
							c0,0,0,0,0,0c0.1,2,0.6,3.9,0.7,5.8c0.1,1.9,0.3,3.8,0.3,5.7c0,2.9-1,7.2-4.1,7.7C285.5,160.4,285.4,159.3,285.9,158.9z"/>
					</g>
					<g>
						<path class="st6" d="M295.1,159.8c1.1-2.2,3.3-3.6,5.7-3.5c0.1,0,0.1,0.2,0,0.2c-2,0.5-3.9,1.9-4.8,4c-0.9,2-0.7,4.2,0,6.4
							c0.2,0.6-0.7,1.1-1,0.5C293.8,165,294.1,161.9,295.1,159.8z"/>
					</g>
					<g>
						<path class="st6" d="M300.2,259.4c-0.1-3.1,0.6-6.1,2.1-8.6c0.1-0.1,0.2,0,0.2,0.1c-1.8,4.6-1.8,10.2,0.3,15
							c2,4.6,5.9,8.1,10.3,9.5c1.2,0.4,2.4,0.7,3.6,0.8c0,0,0,0,0,0c1,0.3,2,0.6,3,0.7c0.6,0.2,1.2,0.3,1.7,0.3
							c0,0.6-0.3,1.2-0.8,1.3c-2.3,0.7-5.1,0.3-7.5-0.5c-2.4-0.8-4.7-2.2-6.7-4C302.5,270.4,300.3,264.9,300.2,259.4z"/>
					</g>
					<g>
						<path class="st6" d="M292.1,256.6c-0.9-6.3,1.4-13.4,7.2-15.4c2.5-0.9,5.3-0.4,7.5,1.4c2.4,1.9,3.3,4.9,3,7.9
							c-0.4,4.1-2.2,7.9-3.1,11.8c0,0.1-0.2,0.1-0.1,0c0.4-1.7,0.6-3.4,0.9-5.2c0.2-1.5,0.6-2.9,0.8-4.4c0.4-2.7,0.6-5.6-1.4-7.8
							c-1.6-1.8-4.1-2.6-6.2-2.1c-2.5,0.5-4.4,2.4-5.6,4.7c-1.4,2.7-1.7,5.9-1.8,9C293.1,257.1,292.2,257.4,292.1,256.6z"/>
					</g>
					<g>
						<path class="st6" d="M264.9,221.1c0.5-0.2,0.9-0.5,1.4-0.8c-0.1-0.2-0.1-0.4,0.1-0.6c1.4-1.4,2.8-3,3.8-4.7
							c0.5-0.8,1-1.7,1.4-2.7c0.2-1.2,0.5-2.3,0.6-3.5c0-0.1,0-0.2,0-0.3c-0.2-0.1-0.4-0.3-0.5-0.6c-0.2-1-0.5-2.1-0.7-3.1
							c0-0.2,0-0.3,0-0.4l-0.1-0.4c-0.2-0.4-0.4-0.8-0.7-1.3c-0.5-0.9,0.8-2.1,1.5-1.2c0.5,0.6,0.9,1.2,1.2,1.9c0-0.6,0.8-1,1.2-0.3
							c0.2,0.4,0.4,0.8,0.6,1.3c1.1-1,2.8-1.7,4.1-0.7c0.5,0.4,0.2,1.2-0.4,1.2c-0.6,0-1.3-0.1-1.9,0.2c-0.6,0.2-1.2,0.6-1.6,1.1
							c-0.4,0.5-0.7,1.2-0.8,1.8c0.1,0.6,0.1,1.2,0.1,1.8c0.1,0.3,0.2,0.6,0.3,0.9c1.3,3.6,4.9,5.3,8,6.6c0.1,0,0.1,0.2,0,0.2
							c-3.2-0.2-6.7-1.6-8.5-4.6c-0.1,0.6-0.3,1.1-0.4,1.6c-0.7,2-1.9,3.9-3.4,5.2c-0.7,0.6-1.6,1.1-2.4,1.4c-1,0.3-1.8,0.3-2.8,0.4
							C264.8,221.4,264.8,221.1,264.9,221.1z"/>
					</g>
					<g>
						<path class="st6" d="M310,187c1-0.3,2.1-0.6,3-1.1c0.9-0.5,1.7-1.3,2.3-2.2c1.2-1.7,1.3-3.7,1.2-5.8c0-0.8,1.1-1,1.3-0.2
							c0.7,2.4-0.2,5.2-1.6,7c-0.9,1.2-2.5,2.3-4.1,2.7c0.7,0.2,1.4,0.5,2.1,0.8c1.4,0.8,2.7,1.9,3.8,3.1c2.4,2.8,3.6,6.8,3,10.4
							c-0.1,0.8-1.2,0.9-1.2,0c0.1-3.3-0.8-6.8-2.9-9.5c-0.9-1.2-2.1-2.2-3.3-2.9c-0.6-0.4-1.3-0.7-2-1c-0.5-0.2-1.3-0.4-1.6-0.9
							c0-0.1,0-0.1,0-0.1c0,0,0,0,0,0c-0.1,0-0.1,0-0.2,0C309.8,187.3,309.9,187.1,310,187z"/>
					</g>
					<g>
						<path class="st6" d="M278.8,237c1.4-0.8,3.2-0.6,4.8-0.2c1.7,0.5,3.3,1.3,4.7,2.5c1.1,0.9,2,2,2.8,3.3c0.1,0,0.1,0.1,0.2,0.1
							c0.4,0.4,0.8,0.9,1.1,1.4c0.2-0.3,0.5-0.3,0.8-0.1c0.2-0.1,0.4-0.1,0.7,0c0.6,0.4,1.2,0.6,1.1,1.5c0,0.6-0.3,1.2-0.8,1.4
							c0,0,0,0,0,0c0,0.8-0.2,1.5-0.5,2.2c-0.1,0.1-0.2,0.3-0.4,0.4c0,0.2,0,0.4,0,0.7c0,1-1.5,1.4-1.7,0.2
							c-0.6-3.5-1.9-6.8-4.5-9.3c-1.2-1.1-2.5-1.9-4-2.5c-1.4-0.5-2.9-0.7-4.3-1.2C278.7,237.3,278.7,237.1,278.8,237z"/>
					</g>
					<g>
						<path class="st6" d="M284.6,185c-1.1-0.7,0-2.5,1.1-1.9c3.6,1.9,6.2,5.6,7.6,9.6c1.4,3.9,1.7,8.2,0.1,11.9c0,0.1-0.1,0-0.1,0
							c0.5-3.7,0-7.7-1.5-11.2C290.2,189.9,287.6,187,284.6,185z"/>
					</g>
					<g>
						<path class="st6" d="M264.8,172.1c-0.1-1.4-0.2-2.6,0.2-4c0.4-1.3,1.2-2.5,2.1-3.4c1.8-1.8,4.6-3.2,7.2-2.3
							c1,0.3,0.5,1.8-0.3,1.8c-2.1,0.2-4.1,0.6-5.7,2.1c-0.8,0.7-1.5,1.5-2,2.5c-0.6,1-1.2,2.2-1.3,3.4
							C264.9,172.2,264.8,172.3,264.8,172.1z"/>
					</g>
					<g>
						<path class="st6" d="M259.4,184.7c0.1-0.2,0.4-0.2,0.4,0.1c0.1,2.2,0.4,4.4,1.3,6.4c0.8,2,2.2,3.9,3.7,5.3
							c0.6,0.5,0,1.6-0.7,1.2C260.2,195.1,257.7,189.2,259.4,184.7z"/>
					</g>
					<g>
						<path class="st6" d="M252.8,157.4c1,0.4,2.4-0.2,3.4-0.5c1.1-0.4,2.1-0.9,3-1.6c0.9-0.7,1.8-1.4,2.5-2.4
							c0.6-0.7,1.5-1.8,1.5-2.8c0,0,0-0.1-0.1-0.1c-0.4,0.1-0.7,0.5-1,0.8c-0.4,0.4-0.8,0.7-1.2,1.1c-0.8,0.7-1.6,1.3-2.5,1.8
							c-0.8,0.5-1.7,0.9-2.6,1.2c-0.1-1.1-0.4-2.2-0.5-3.4c-0.1-1.1-0.1-2.2,0-3.2c0.3-3.9,1.5-7.7,3.6-10.8
							c2.1-3.1,5.2-5.6,8.4-7.3c0,0.2,0,0.4-0.1,0.6c0,0.1,0.1,0.1,0.1,0c0.2-0.5,0.5-0.9,0.7-1.4c0.2-0.4,0.4-0.7,0.6-1.1
							c0.5-0.7,1-1.4,1.6-2c1.1-1.2,2.5-2.2,4-2.7c1.6-0.6,3.3-0.7,5-0.5c1.6,0.2,3.3,0.9,4.8,1.6c0.8,0.4,1.2-1,0.6-1.5
							c-1.3-1.2-3-2-4.7-2.3c0.3-0.1,0.6-0.3,0.9-0.4c0.9-0.3,1.9-0.6,2.9-0.7c2-0.2,4.1,0.1,6,0.8c0.4,0.1,0.8,0.3,1.2,0.5
							c-0.5-0.1-1-0.1-1.5-0.1c-0.5,0-1.1,0.1-1.6,0.2c-0.2,0.1-0.5,0.2-0.7,0.3c-0.1,0.1-0.2,0.3-0.4,0.4c-0.1,0.1-0.1,0.4,0.1,0.4
							c0.1,0,0.2,0.1,0.4,0.1c0.2,0.1,0.4,0,0.7,0c0.5,0,1,0,1.5,0.1c0.9,0.1,1.8,0.5,2.7,0.9c0.6,0.3,1.2,0.7,1.7,1.1
							c1.9,2.1,3.7,4.3,5.3,6.7c3.3,4.8,5.8,10.2,7.7,15.8c1,2.8,1.7,5.7,2.2,8.5c0.5,2.9,0.7,5.8,1.1,8.7c0,0.2,0.3,0.1,0.3,0
							c0.4-3.4,0.1-6.9-0.4-10.3c-0.5-3.1-1.2-6.2-2.2-9.2c0.3-2.2,0.3-4.4-0.1-6.6c-0.6-3.8-2.2-7.4-4.7-10.4
							c-1.2-1.4-2.5-2.6-4-3.7c-0.7-0.5-1.5-1-2.3-1.4c-0.7-0.4-1.4-0.8-2.1-1c-1.3-1.2-2.9-2.2-4.5-2.9c-2.2-0.9-4.5-1.2-6.7-1
							c-2.2,0.3-4.6,1-6.3,2.5c-0.1,0.1-0.2,0.2-0.2,0.3c-1.2,0.1-2.4,0.4-3.5,0.9c-1.7,0.8-3.2,2-4.4,3.6c-0.6,0.8-1,1.6-1.4,2.6
							c-0.2,0.5-0.3,1-0.4,1.4c0,0.2-0.1,0.4-0.1,0.6c0,0,0,0,0,0c-2.2,0.5-4.2,1.3-6,2.7c-3.2,2.4-5.6,6-6.9,10.1
							c-0.6,2-1,4.2-1.1,6.3c-0.1,2,0,4.2,0.6,6.2c-0.4,0.1-0.9,0.2-1.2,0.5C252.2,156.2,252.1,157.2,252.8,157.4z M298.4,126.9
							c-0.3-0.7-0.7-1.4-1.1-2.1c0.6,0.3,1.1,0.7,1.6,1.1c5.7,4.2,9.1,11.2,8.8,18.3c-0.8-2.5-1.8-4.9-3-7.2
							C302.9,133.4,300.8,130,298.4,126.9z"/>
					</g>
					<g>
						<path class="st6" d="M275.8,127.7c1.8-0.4,3.5-0.2,5.2,1c0.8,0.6,1.5,1.3,2,2.2c0.5,0.8,1.1,2.1,0.6,3
							c-0.1,0.3-0.5,0.5-0.8,0.2c-0.6-0.5-0.6-1.5-1-2.2c-0.4-0.7-0.9-1.4-1.4-2c-1.2-1.2-3-2.2-4.5-2
							C275.7,127.9,275.7,127.7,275.8,127.7z"/>
					</g>
				</g>
				<g>
					<path class="st6" d="M324.1,209c-0.1-1.1-0.2-2.2-0.3-3.3c-0.1-1-0.2-2.1-0.4-3.1c-0.3-2.1-0.7-4.3-1.2-6.4
						c-0.5-2.1-1.1-4.2-1.8-6.3c-0.7-2.1-1.5-4.1-2.1-6.2c0-0.1,0.1-0.3,0.2-0.2c1.2,1.8,2,3.8,2.8,5.9c0.8,2.1,1.4,4.2,2,6.4
						c0.6,2.2,1,4.3,1.4,6.5c0.3,2.2,0.7,4.4,0.7,6.6C325.4,209.5,324.2,209.8,324.1,209z"/>
				</g>
				<g>
					<path class="st6" d="M321,279.8c5.7,3.2,13,2.2,17.5-2.5c2.2-2.3,3.6-5.2,4-8.4c0.5-3.7-0.3-7.4-1.2-11
						c-0.5-2.2-1.2-4.5-1.8-6.7c-0.3-1.1-0.7-2.2-1.1-3.3c-0.4-1.1-0.8-2.1-1-3.2c0-0.1,0.1-0.1,0.1-0.1c0.6,0.9,1,1.9,1.4,2.8
						c0.4,1,0.8,2,1.2,3c0.8,2,1.5,4.1,2.1,6.2c1.1,3.8,2.1,7.7,1.8,11.7c-0.5,7-5.7,13.2-12.6,14.7c-3.9,0.8-8,0.2-11.4-1.7
						C319,280.8,320.1,279.3,321,279.8z"/>
				</g>
				<g>
					<path class="st6" d="M314.6,172.1c0-7.4-1.4-14.7-4.3-21.5c-0.8-1.9-1.8-3.8-2.8-5.7c-0.1-0.2,0.2-0.4,0.3-0.2
						c2.2,3,3.8,6.5,5,10c1.3,3.5,2.2,7.2,2.6,11c0.3,2.1,0.4,4.3,0.4,6.5C315.8,172.9,314.6,173,314.6,172.1z"/>
				</g>
				<g>
					<path class="st6" d="M300.1,237.7c-0.2-0.8-0.1-1.8-0.1-2.6c0-0.9,0.1-1.8,0.3-2.7c0.2-0.8,0.4-1.7,0.8-2.5
						c0.3-0.8,0.8-1.5,1.2-2.2c0,0,0,0,0,0c-0.7,1.4-1.1,3.2-1.4,4.8c-0.1,0.8-0.2,1.6-0.2,2.4c0,0.9,0.1,1.7,0.2,2.6
						C301,238,300.2,238.3,300.1,237.7z"/>
				</g>
				<g>
					<path class="st6" d="M290.5,174.3c4.3-4.7,11-6.5,17.1-4.6c1.6,0.5,3.1,1.3,4.5,2.3c0,0,0,0.1,0,0.1c-3.1-2-7-2.8-10.7-2.5
						c-3.9,0.4-7.7,2.3-10.4,5.2C290.6,175.3,290.2,174.7,290.5,174.3z"/>
				</g>
				<g>
					<path class="st6" d="M297.9,156.9c0.9-0.7,1.7-1.5,2.4-2.4c0.6-1,1.1-2.1,1.3-3.2c0.6-2.7,0.4-5.6-0.1-8.3c0,0,0,0,0,0
						c0.6,2.9,1.2,5.8,0.6,8.7c-0.5,2.3-1.7,4.8-3.8,6C297.9,157.9,297.5,157.2,297.9,156.9z"/>
				</g>
				<g>
					<path class="st6" d="M298.8,212.5c0.8-0.1,1.7,0.1,2.6,0.2c0.5,0.1,1.1,0.2,1.6,0.3c0-0.1,0-0.1,0-0.2c0-0.3,0.2-0.6,0.5-0.5
						c0.2,0,0.5,0.1,0.7,0.1c0.1-0.3,0.4-0.5,0.7-0.4c0.2,0.1,0.5,0.1,0.7,0.2c0.2-0.2,0.4-0.3,0.7-0.1c0.8,0.4,1.5,0.9,2.3,1.4
						c0.3,0.2,0.2,0.6,0,0.8c0.5,0.2,1,0.3,1.5,0.5c0.3,0.1,0.3,0.5,0.1,0.7c1.2,0.6,2.4,1.3,3.5,2c1.4,0.9,2.9,2,4,3.4
						c0,0,0,0.1,0,0.1c-1.5-0.8-2.9-1.8-4.3-2.7c-1.5-0.9-3.1-1.7-4.7-2.3c-1.6-0.7-3.2-1.2-4.8-1.7c-0.8-0.2-1.6-0.4-2.5-0.6
						c-0.8-0.2-1.8-0.2-2.6-0.5C298.3,213,298.5,212.5,298.8,212.5z"/>
				</g>
				<g>
					<path class="st6" d="M250.8,223.2c-0.3-1.4-0.5-2.9-0.6-4.4c-0.1-2.9,0.3-5.9,1.2-8.6c0.3-0.8,0.6-1.6,0.9-2.3
						c0.4-0.8,0.7-1.5,1.3-2.2c0.4-0.4,0.9,0.1,0.7,0.5c-0.3,0.9-0.8,1.6-1.2,2.5c-0.4,0.8-0.7,1.6-0.9,2.4c-0.6,1.7-1,3.5-1.2,5.3
						c-0.2,1.8-0.2,3.6,0,5.4c0.2,1.8,0.6,3.7,1.2,5.4c0,0,0,0.1-0.1,0C251.7,225.9,251.1,224.6,250.8,223.2z"/>
				</g>
			</g>
		</g>
		<g>
			<g>
				<path class="st6" d="M382.1,271.5c1.4-1.2,2.8-2.2,4.1-3.4c1.3-1.3,2.6-2.6,3.7-4.1c2.4-3,4.3-6.5,5.9-10.1c0,0,0.1,0,0.1,0
					c-1.1,3.9-2.9,7.5-5.2,10.7c-1.1,1.6-2.3,3-3.6,4.4c-1.3,1.4-2.8,2.8-4.4,3.8C382,273.1,381.5,272,382.1,271.5z"/>
			</g>
			<g>
				<path class="st6" d="M382,275.9c0-0.4,0.2-0.6,0.5-0.7c0.2-0.1,0.3-0.1,0.5-0.1c-0.1-0.9-0.5-1.7-1.3-2.1
					c-0.8-0.4-0.3-1.6,0.4-1.4c1.4,0.3,2.2,2.6,1.5,3.8c0.6,0.5,0.9,1.4,0.5,2.2c0,0.1-0.1,0-0.1,0c-0.1-0.7-1-1.1-1.5-1
					C382.2,276.5,382,276.1,382,275.9z"/>
			</g>
			<g>
				<path class="st6" d="M310.7,291.9c-1.8-0.3-3.6-0.3-5.3-0.7c-1.8-0.4-3.6-0.9-5.4-1.5c-3.6-1.3-7.1-3.2-10.3-5.5c0,0-0.1,0,0,0
					c3,2.7,6.5,4.8,10,6.3c1.8,0.7,3.5,1.4,5.4,1.8c1.9,0.5,3.9,0.9,5.7,0.9C311.5,293.3,311.4,292,310.7,291.9z"/>
			</g>
			<g>
				<path class="st6" d="M309.9,291.6c2.1-1,4.6-1.4,6.9-2c2.3-0.6,4.7-1.3,7-2c4.7-1.3,9.3-2.6,14-4c9.3-2.6,18.5-5.3,27.8-7.9
					c2.6-0.7,5.2-1.4,7.8-2.1c2.5-0.7,5.1-1.6,7.7-1.8c0.4,0,0.3,0.5,0.1,0.6c-2.1,1-4.5,1.6-6.7,2.3c-2.3,0.7-4.7,1.4-7,2.1
					c-4.6,1.4-9.3,2.7-14,4.1c-9.3,2.7-18.5,5.4-27.8,8c-2.6,0.7-5.2,1.5-7.8,2.2c-2.6,0.7-5.2,1.9-7.9,2.2
					C309.1,293.5,309.2,292,309.9,291.6z"/>
			</g>
			<g>
				<path class="st6" d="M309.8,291.8c0.3-0.3,0.9-0.3,1.1,0.2c0.3,0.7-0.1,1.6,0.1,2.3c0.2,0.9,0.8,1.5,1.4,2c0,0,0,0,0.1,0.1
					c0.1-0.1,0.1-0.1,0.2-0.2c2.1-1.1,4.6-1.5,6.9-2.2c2.3-0.7,4.6-1.4,7-2.1c4.6-1.4,9.3-2.8,13.9-4.2c9.2-2.8,18.4-5.7,27.6-8.5
					c2.6-0.8,5.1-1.6,7.7-2.4c2.6-0.8,5.2-1.8,7.9-2.2c0.5-0.1,0.7,0.6,0.2,0.9c-2.1,1.1-4.4,1.7-6.7,2.5c-2.3,0.8-4.6,1.6-6.9,2.3
					c-4.6,1.5-9.2,3-13.8,4.5c-9.2,2.9-18.5,5.8-27.7,8.6c-2.6,0.8-5.3,1.6-7.9,2.4c-1.3,0.4-2.5,0.8-3.8,1.2
					c-1.3,0.4-2.7,0.9-4.1,1c-0.6,0.1-0.8-0.4-0.8-0.9c-0.1,0-0.1,0-0.2,0c-1.1-0.2-1.9-1.2-2.4-2.2
					C309.1,294.2,308.8,292.6,309.8,291.8z"/>
			</g>
			<g>
				<path class="st6" d="M379.4,283.5c0-1-0.1-2-0.1-3c0-1.2-0.2-2.6,0.1-3.8c0-0.2,0.3-0.2,0.3,0c0.5,1.2,0.4,2.7,0.5,3.9
					c0.1,1.1,0.2,2.2,0.2,3.3C380.2,283.6,379.8,283.5,379.4,283.5z"/>
			</g>
			<g>
				<path class="st6" d="M379.8,292.8c0.1-0.1,0.3-0.2,0.4-0.3c0.4-0.4,0.7-0.8,0.9-1.2c0,0.7,0.1,1.3,0.1,2
					c0.2,2.8,0.4,5.6,0.5,8.4c0,0.4,0,0.8,0.1,1.2c-0.4-0.4-0.8-0.8-1.3-1.1c-0.1-0.1-0.2-0.1-0.3-0.2c-0.1-2.8-0.3-5.5-0.4-8.3
					C379.8,293.1,379.8,292.9,379.8,292.8z"/>
			</g>
			<g>
				<path class="st6" d="M318.1,302.6c-0.1,0.1-0.1,0.2-0.1,0.4c-0.4-0.9-0.8-1.9-1.2-2.8c-0.5-1.2-1.1-2.5-1.5-3.8
					c-0.1-0.4,0.6-0.9,0.9-0.5c0.8,1,1.4,2.3,2,3.5c0.3,0.6,0.6,1.2,0.9,1.7C318.5,301.4,318.1,302,318.1,302.6z"/>
			</g>
			<g>
				<path class="st6" d="M324.9,315.5c-0.6-0.1-1.3,0-1.9,0.3c-0.5-1.4-1-2.9-1.6-4.3c-0.4-1.1-0.9-2.3-1.3-3.4c0.6,0.2,1.3,0.3,2,0
					c0.1,0,0.2-0.1,0.2-0.1c0.4,0.8,0.7,1.7,1.1,2.6c0.7,1.6,1.4,3.3,2,4.9C325.2,315.5,325,315.5,324.9,315.5z"/>
			</g>
			<g>
				<path class="st6" d="M325.9,320.4c0.1-0.1,0.1-0.1,0.2-0.2c0.3-0.2,0.6-0.4,0.8-0.7c0.6,1.8,1.2,3.6,1.7,5.4
					c0.6,0.2,0.9,1.2,0.3,1.9c-0.1,0.1-0.3,0.3-0.4,0.4c-0.5,0.5-1.4,0.4-1.7-0.3c-0.7-2-1.4-4-2-6.1
					C325.2,320.8,325.6,320.7,325.9,320.4z"/>
			</g>
			<g>
				<path class="st6" d="M332.2,334.1c1.4-0.9,3.4-1.2,5-1.6c1.7-0.5,3.4-0.9,5.1-1.4c3.3-0.9,6.7-1.8,10-2.6
					c6.7-1.8,13.5-3.5,20.2-5.2c1.9-0.5,3.8-1,5.7-1.4c1.8-0.4,3.6-0.9,5.5-1c0.2,0,0.2,0.3,0,0.3c-3.1,1.5-6.5,2.4-9.8,3.4
					c-3.3,1-6.7,2-10,2.9c-6.7,2-13.4,3.9-20.1,5.8c-1.9,0.5-3.8,1.1-5.7,1.6c-0.9,0.3-1.8,0.5-2.7,0.8c-1,0.3-2,0.7-3,0.6
					C331.2,336.3,331.3,334.7,332.2,334.1z"/>
			</g>
			<g>
				<path class="st6" d="M329.5,333.8c0.5,0.3,1.1,0.4,1.7,0.4c0,0.4,0,0.8,0,1.2c0,0.2-0.4,0.4-0.5,0.2c-0.2-0.2-0.3-0.5-0.5-0.7
					c-0.1-0.2-0.3-0.5-0.5-0.7c-0.2-0.1-0.3-0.3-0.4-0.6C329.4,333.7,329.4,333.8,329.5,333.8z"/>
			</g>
			<g>
				<path class="st6" d="M334.1,332.2c1.2-1.1,3-1.7,4.5-2.4c1.5-0.7,3.1-1.5,4.6-2.2c3.1-1.5,6.1-2.9,9.2-4.4
					c6.1-2.9,12.3-5.8,18.5-8.6c3.4-1.5,6.8-3.1,10.4-4.2c0.1,0,0.1,0.1,0,0.2c-2.8,2-5.9,3.5-8.9,5.1c-3,1.6-6.1,3.1-9.1,4.6
					c-6.1,3-12.2,6.1-18.3,9c-1.7,0.8-3.4,1.6-5,2.4c-0.9,0.4-1.8,0.9-2.7,1.3c-0.9,0.4-1.7,0.9-2.6,1
					C333.6,334,333.6,332.7,334.1,332.2z"/>
			</g>
			<g>
				<path class="st6" d="M328.3,325.8c1.5-1.1,3.4-1.8,5-2.6c1.7-0.8,3.4-1.7,5-2.5c3.4-1.7,6.7-3.3,10.1-5
					c6.7-3.3,13.3-6.6,20.1-9.8c1.9-0.9,3.8-1.8,5.7-2.7c1.9-0.9,3.7-1.8,5.7-2.4c0.4-0.1,0.7,0.5,0.3,0.8c-3,2.2-6.4,3.7-9.7,5.4
					c-3.3,1.7-6.7,3.4-10,5.1c-6.7,3.4-13.5,6.8-20.2,10.2c-1.9,0.9-3.7,1.9-5.6,2.8c-1.9,0.9-3.8,2.2-5.8,2.8
					c-0.5,0.2-1.1-0.2-1.2-0.7C327.5,326.7,327.8,326.2,328.3,325.8z"/>
			</g>
			<g>
				<path class="st6" d="M326.4,319.4c1.5-1.2,3.5-2,5.2-2.8c1.7-0.9,3.4-1.7,5.1-2.6c3.5-1.8,7-3.5,10.4-5.3
					c7-3.5,13.9-7,20.9-10.4c2-1,3.9-1.9,5.9-2.9c0.9-0.4,1.9-0.9,2.8-1.3c1-0.4,2-0.9,3-1.1c0.2,0,0.3,0.2,0.1,0.4
					c-1.4,1.3-3.2,2.2-4.8,3.1c-1.7,0.9-3.4,1.9-5.1,2.8c-3.4,1.8-6.9,3.7-10.4,5.5c-6.9,3.6-13.9,7.2-20.8,10.8c-2,1-3.9,2-5.9,3
					c-0.9,0.5-1.9,1-2.8,1.4c-1,0.5-2,1.1-3.1,1.4C326,321.6,325.6,320.1,326.4,319.4z"/>
			</g>
			<g>
				<path class="st6" d="M322.3,315.1c1.6-1.4,3.8-2.3,5.7-3.4c1.8-1,3.6-2.1,5.5-3.1c3.7-2.1,7.5-4.2,11.2-6.4
					c7.4-4.2,14.7-8.4,22.1-12.4c2.1-1.2,4.2-2.3,6.4-3.5c2-1.1,4-2.4,6.3-3c0.2-0.1,0.3,0.2,0.1,0.3c-1.5,1.5-3.5,2.5-5.3,3.6
					c-1.8,1.1-3.6,2.2-5.4,3.3c-3.7,2.2-7.4,4.4-11.1,6.6c-7.3,4.3-14.7,8.5-22,12.7c-2.1,1.2-4.2,2.4-6.3,3.6
					c-1,0.6-2.1,1.2-3.1,1.8c-1,0.6-2,1.3-3.2,1.7C321.9,317.5,321.5,315.8,322.3,315.1z"/>
			</g>
			<g>
				<path class="st6" d="M319.9,307.3c3.2-2.1,6.6-3.7,9.9-5.5c3.3-1.8,6.7-3.6,10-5.4c6.6-3.6,13.1-7.1,19.8-10.6
					c1.8-1,3.7-1.9,5.6-2.9c1-0.5,2-1,2.9-1.4c0.8-0.4,1.6-0.8,2.5-0.9c0.1,0,0.1,0.1,0.1,0.2c-1,1.3-2.8,2.1-4.2,2.9
					c-1.7,1-3.3,2-5,2.9c-3.3,1.9-6.6,3.8-9.9,5.7c-6.5,3.7-13.1,7.3-19.6,10.9c-1.8,1-3.7,2-5.5,3c-1.9,1.1-3.8,2.2-5.8,3.1
					C319.3,310,318.7,308,319.9,307.3z"/>
			</g>
			<g>
				<path class="st6" d="M317.9,300.3c0.1,0,0.2,0,0.2,0c0.8-0.6,1.9-1,2.8-1.4l3.2-1.6c2.2-1.1,4.4-2.2,6.6-3.3
					c2.2-1.1,4.3-2.1,6.5-3.2c2.1-1,4.2-2.3,6.5-2.7c0.1,0,0.1,0.1,0,0.1c-1.7,1.6-3.9,2.6-5.9,3.8c-2.2,1.2-4.3,2.4-6.5,3.6
					c-2.1,1.2-4.2,2.4-6.4,3.5c-1.1,0.6-2.1,1.2-3.2,1.7c-1.1,0.6-2.2,1.4-3.3,1.7c-0.3,0.1-0.5,0-0.7-0.1c-0.1,0.2-0.1,0.4-0.2,0.6
					c-0.2,0.7-0.1,1.4,0.1,2.1c0.2,0.6,0.6,1.2,1.2,1.6c0.6,0.4,1.5,0.6,1.9,1.2c0.3,0.5,0.2,1.2-0.4,1.5c-1,0.5-2.2-0.1-3-0.8
					c-0.9-0.7-1.5-1.7-1.8-2.8C315.2,304,315.8,301.1,317.9,300.3z"/>
			</g>
			<g>
				<path class="st6" d="M322.4,315.1c0.6-0.4,1,0.4,0.7,0.9c-0.5,1-0.7,2.1,0,3c0.3,0.4,0.7,0.6,1.2,0.8c0.5,0.2,1,0.1,1.4,0.4
					c0.5,0.4,0.4,1.1,0,1.5c-1.5,1.3-3.9-0.2-4.6-1.7C320.4,318.3,320.9,316.1,322.4,315.1z"/>
			</g>
			<g>
				<path class="st6" d="M327.7,326.8c0.4-0.4,1.1,0,0.9,0.6c-0.4,1-0.6,2.1-0.4,3.2c-0.1,0.3-0.1,0.5-0.1,0.8c0,0,0,0,0,0.1
					c0,0.2,0,0.3,0,0.5c0.1,0.8,0.6,1.5,1.3,1.9c0.7,0.4,1.5,0.5,2.3,0.4c0.3,0,0.6-0.2,0.8-0.5c1.3,0.1,0.8,2-0.4,2.1
					c-2.2,0.1-4.3-1.1-5.3-3C326,331,326.2,328.3,327.7,326.8z"/>
			</g>
			<g>
				<path class="st6" d="M380.1,310.9c0.4-0.7,1.5-1.1,2.1-1.7c0.6-0.7,1.1-1.6,1.2-2.6c0.1-0.9-0.2-1.8-0.6-2.6
					c-0.5-0.9-1.3-1.3-2-2c-0.8-0.7-0.1-2,0.9-1.8c2.7,0.5,4.1,4,3.8,6.5c-0.2,1.4-0.9,2.6-1.9,3.6c-0.7,0.7-2.4,1.9-3.4,1.2
					C379.9,311.4,379.9,311.1,380.1,310.9z"/>
			</g>
			<g>
				<path class="st6" d="M379.7,293.2c0.2-0.5,0.7-0.7,1.1-1c0.4-0.4,0.7-0.8,1-1.2c0.5-0.8,0.9-1.7,0.8-2.7
					c-0.1-2.1-1.7-3.5-3.5-4.3c-1.4-0.6-0.5-2.4,0.8-2.3c2.9,0.4,4.9,3.7,4.9,6.5c0,1.5-0.6,3-1.6,4.1c-0.7,0.8-2.3,2.2-3.5,1.5
					C379.5,293.6,379.6,293.3,379.7,293.2z"/>
			</g>
			<g>
				<path class="st6" d="M380.8,321.4c-0.1-0.4-0.1-0.8-0.1-1.3c0-0.1,0-0.3,0.1-0.4c-0.1-2.3-0.4-4.6-0.3-6.9
					c0-0.3,0.5-0.5,0.6-0.2c0.7,2.3,0.8,4.8,1.3,7.2c0.1,0.4,0.2,0.7,0.2,1.1C382.8,322,381.1,322.6,380.8,321.4z"/>
			</g>
			<g>
				<path class="st6" d="M337.1,335.8c-0.3-1.2,1.8-2.3,2.3-0.9c0.8,2.6,2.9,4.5,5.5,5.3c3,1,6.2,0.7,9.2,0.2
					c6.2-1.1,13.4-2.1,17.9-7c2.1-2.3,3.2-5.3,3-8.4c0-0.2,0.3-0.4,0.4-0.1c0.6,1.4,0.7,2.7,0.5,4.1c-0.2,1.5-0.8,2.9-1.5,4.1
					c-1.7,3-4.5,5.1-7.7,6.5c-3.6,1.5-7.4,2.3-11.2,3c-3.5,0.7-7.3,1.2-10.8,0.2C341.1,341.8,338,339.4,337.1,335.8z"/>
			</g>
		</g>
		<g>
			<path class="st6" d="M414,175.1c0.6-0.5,1.1-1.1,1.8-1.4c0.7-0.4,1.5-0.8,2.2-1.1c1.5-0.7,3.1-1.4,4.7-2.1
				c3.1-1.4,6.1-2.7,9.2-4.1c6.3-2.8,12.7-5.1,19.2-7.5c1.8-0.6,3.5-1.3,5.3-1.9c0.9-0.3,1.8-0.6,2.7-0.9c1.3-0.4,2.6-1,4-0.5
				c2.2,0.9,2.8,3.5,1.4,5.4c-0.5,0.7-1.2,1.4-2,1.7c-0.5,0.3-1.1,0.4-1.7,0.6c-0.8,0.3-1.6,0.6-2.3,0.8c-1.6,0.6-3.2,1.1-4.8,1.6
				c-3.2,1-6.3,2-9.5,3c-3.1,0.9-6.3,1.9-9.4,2.6c-3.2,0.8-6.4,1.5-9.6,2.3c-1.8,0.4-3.6,0.9-5.4,1.3c-0.9,0.2-1.8,0.4-2.7,0.5
				c-0.4,0.1-0.8,0.2-1.2,0.2c-0.5,0-1-0.1-1.5-0.2C413.8,175.7,413.7,175.3,414,175.1z"/>
		</g>
		<g>
			<path class="st6" d="M277.7,53c0-1,0.3-1.8,0.8-2.7c0.6-1.1,2.4-2,3.6-1.5c2.3,0.9,2.6,3.1,3.1,5.2c0.4,1.6,0.8,3.2,1.2,4.8
				c0.8,3.2,1.7,6.4,2.5,9.6c1.7,6.5,3.4,13.1,4.6,19.7c0.2,1,1.6,9.6-0.1,9.5c-0.5,0-0.8-0.4-1.1-0.9c-0.5-0.7-1-1.3-1.4-2.1
				c-0.7-1.4-1.3-2.8-1.9-4.3c-1.2-3-2.2-6-3.1-9.1c-1.9-6.1-3.8-12.2-5.6-18.3c-0.5-1.7-1-3.5-1.6-5.2c-0.3-0.8-0.5-1.7-0.8-2.5
				C277.9,54.5,277.7,53.8,277.7,53z"/>
		</g>
		<g>
			<path class="st6" d="M354.7,79.4c0.8-2.4,1.8-4.8,2.9-7.1c1.1-2.3,2.2-4.7,3.2-7c1.2-2.7,2.2-5.7,4.3-7.9
				c0.8-0.8,2.2-1.1,3.2-0.6c1.1,0.5,1.6,1.7,1.5,2.8c-0.2,1.5-0.9,2.8-1.6,4.1c-0.6,1.2-1.2,2.4-1.8,3.6c-1.1,2.3-2.3,4.6-3.4,7
				c-1.2,2.5-2.4,5-4,7.2c-1.4,2.1-2.7,4.4-5,5.6c-0.3,0.1-0.5,0-0.6-0.3C352.9,84.3,354,81.8,354.7,79.4z"/>
		</g>
		<g>
			<path class="st6" d="M389.2,122.1c4.8-3.8,9.9-7.1,15.3-10.1c5.3-2.9,10.6-5.7,15.9-8.5c1.5-0.8,2.9-1.5,4.4-2.3
				c1.8-0.9,3.8-2.1,5.8-1.9c2.4,0.2,3.2,2.8,2,4.7c-0.7,1-1.4,1.6-2.4,2.2c-0.7,0.4-1.3,0.8-2,1.2l-4.1,2.1c-2.7,1.3-5.3,2.7-8,4
				c-5.4,2.7-10.8,5.1-16.3,7.5c-3.2,1.3-6.4,2.4-9.7,3.3C388.8,124.6,388.3,122.9,389.2,122.1z"/>
		</g>
		<g>
			<path class="st6" d="M199.2,138.5c1.9-0.9,4-0.1,6,0.3c1.6,0.4,3.2,0.7,4.8,1.1c3.1,0.7,6.2,1.5,9.3,2.3c3.1,0.8,6.2,1.5,9.2,2.3
				c1.6,0.4,3.2,0.7,4.8,1.2c1.5,0.5,3.2,0.9,4.5,1.9c0.7,0.6,0.4,1.9-0.5,2.1c-1.6,0.4-3.3,0.1-4.9-0.1c-1.7-0.2-3.4-0.5-5.1-0.8
				c-3.2-0.5-6.3-1.1-9.5-1.6c-3.2-0.5-6.3-1-9.5-1.6c-1.6-0.3-3.3-0.6-4.9-0.9c-1.7-0.3-4.1-0.3-5.2-1.9
				C197,141.5,197.6,139.3,199.2,138.5z"/>
		</g>
		<g>
			<path class="st6" d="M172.9,226.4c0-1.2,0.5-2.1,1.3-3c1-1.2,2.4-1.4,3.8-1.6c1-0.2,2-0.3,2.9-0.5c1.9-0.3,3.8-0.6,5.7-0.9
				c3.8-0.5,7.6-1.1,11.5-1.6c7.8-1.1,15.7-2,23.5-3c2.2-0.3,4.3-0.4,6.5-0.6c2-0.1,4.6-0.6,6.4,0.5c0.8,0.5,0.5,1.6,0,2.2
				c-1.5,1.4-3.8,1.8-5.7,2.3c-1.9,0.5-3.8,0.9-5.7,1.3l-11.4,2.2c-7.6,1.5-15.3,2.8-23,4.1c-2.2,0.4-4.4,0.7-6.5,1.1
				c-1,0.2-2.1,0.3-3.1,0.5c-1.7,0.3-3.5,0.8-5-0.4C173.3,228.4,172.9,227.5,172.9,226.4z"/>
		</g>
	</g>
</g>
</svg>
