<?xml version="1.0" encoding="utf-8"?>
<!-- Generator: Adobe Illustrator 21.0.0, SVG Export Plug-In . SVG Version: 6.00 Build 0)  -->
<svg version="1.1" id="Layer_1" xmlns="http://www.w3.org/2000/svg" xmlns:xlink="http://www.w3.org/1999/xlink" x="0px" y="0px"
	 viewBox="0 0 185.6 57.9" style="enable-background:new 0 0 185.6 57.9;" xml:space="preserve">
<style type="text/css">
	.st0{fill:#FFFFFF;}
	.st1{fill:#4E98F1;}
</style>
<g>
	<path class="st0" d="M72.7,36.3c0-3.6,0-7.2,0-10.7c0-1.1,0-2.2,0-3.3c0-0.6,0.1-0.8,0.8-0.8c2.2,0,4.4,0,6.6,0
		c0.4,0.2,0.9,0.1,1.4,0.1c0.1,0,0.3,0,0.4,0c0.4,0.2,0.8,0.3,1.3,0.4c0.2,0.1,0.4,0.2,0.6,0.2c0.3,0.3,0.6,0.5,1,0.6l0,0
		c0,0.2,0.1,0.3,0.3,0.3c0.1,0.1,0.1,0.1,0.2,0.2c0.2,0.3,0.3,0.5,0.6,0.6c0,0,0.1,0.1,0.1,0.1c0,0.2,0.1,0.3,0.3,0.3l0,0
		c0,0.2,0.1,0.4,0.3,0.4c0.4,0.6,0.7,1.2,0.9,1.9c0,0.1,0,0.2,0.1,0.3c0,0.1,0,0.2,0,0.3c0,0.3-0.1,0.6,0.2,0.8c0,0.6,0,1.1,0,1.7
		c-0.3,0.3-0.2,0.6-0.2,0.9c0,0.1,0,0.2,0,0.3c-0.1,0.1-0.2,0.2-0.1,0.4c-0.9,2.2-2.3,3.9-4.6,4.7c-0.3,0.1-0.5,0.1-0.8,0.2
		c-0.1-0.1-0.2,0-0.3,0.1c-0.2,0-0.4,0-0.5,0c-0.3,0-0.5,0-0.8,0C77.8,36.3,75.2,36.4,72.7,36.3z M79.3,29.4c0,0.3,0,0.6,0,0.8
		c0,1.7-0.1,3.3,0.1,5c0,0.2,0,0.5,0.4,0.5c0.8,0,1.6,0,2.3-0.3c3.5-1.1,5.5-4.8,4.6-8.1c-0.8-3.1-3.6-5.2-6.8-5.1
		c-0.4,0-0.5,0.1-0.5,0.5C79.3,25,79.3,27.2,79.3,29.4z"/>
	<path class="st1" d="M154.8,39.9c1-0.1,2.1-0.1,3.1-0.2c0.5,0,0.7-0.3,0.8-0.9c0.9-6.1,0.7-12.1,0.6-18.2c0-1.8-0.2-3.5-0.6-5.3
		c-0.1-0.3-0.1-0.4-0.5-0.5c-1.7-0.2-3.4-0.4-5.1-0.4c0-0.3-0.4-0.2-0.5-0.4c0.7-0.1,1.4,0.1,2.1-0.1c0.2,0.1,0.5,0.1,0.7,0
		c1.3,0.1,2.7,0.1,4,0c0.6,0.1,1.2,0.1,1.8,0c0.6,0.1,1.1,0.1,1.7,0c0.2,0.1,0.5,0.1,0.7,0c1.4,0.1,2.8,0.1,4.2,0
		c0.3,0.1,0.5,0.1,0.8,0c0.3,0,0.6,0,0.9,0.1c0.5,0.1,1.1-0.1,1.6,0.1c-0.2,0-0.5,0-0.6,0.3l0,0c-1.7,0-3.4,0.3-5.1,0.4
		c-0.3,0-0.4,0.3-0.4,0.5c-0.1,1-0.3,1.9-0.3,2.9c0,0.1,0,0.2,0,0.3c-0.2,1.5-0.2,2.9-0.2,4.4c-0.1,3.8-0.1,7.7,0.1,11.5
		c0,0.2,0.1,0.4,0.1,0.5c-0.1,0.2,0,0.4,0,0.6c-0.1,0.2,0,0.5,0,0.7c0,0.1,0,0.3,0,0.4c0.1,0.9,0.2,1.7,0.4,2.6
		c0,0.3,0.2,0.4,0.4,0.4c1.1,0.2,2.3,0.3,3.4,0.3c0.3,0,0.5,0.1,0.8,0.1c0.3,0.4,0.7,0,1.1,0.3c-6,0-11.9,0-17.9,0
		c0.3-0.3,0.8,0,1-0.4c0.2,0,0.4,0,0.5-0.1C154.6,39.9,154.7,39.9,154.8,39.9z M160.1,27.2C160.1,27.2,160.1,27.2,160.1,27.2
		c0,3.9,0,7.8,0,11.8c0,0.7,0.2,0.8,0.9,0.8c0.6,0,0.8-0.1,0.8-0.8c0-7.8,0-15.6,0-23.5c0-0.7-0.4-0.7-0.8-0.7
		c-0.5,0-0.9-0.1-0.9,0.7C160.2,19.4,160.1,23.3,160.1,27.2z"/>
	<path class="st0" d="M104.2,27.9c-0.1,1.4-0.1,2.8,0,4.2c0,0.1,0,0.2,0,0.3c0,0.1,0,0.3,0,0.4c0,0.2,0,0.4,0,0.6c0,0.5,0,0.9,0,1.4
		c0,0.5,0,0.9,0,1.4c0,0.3-0.1,0.6-0.4,0.7c-0.4,0.1-0.4-0.3-0.5-0.5c0-0.5,0-1,0-1.5c0-0.4,0-0.8,0-1.2c0-1.9,0-3.8,0-5.7
		c0-0.4-0.3-0.3-0.5-0.3c-1.9-0.2-3.9,0-5.8,0c-0.9,0-0.9,0-0.9,0.9c0,2.5,0,4.9,0,7.4c0,0.3,0.1,0.6-0.4,0.6
		c-2.1,0-4.2,0.1-6.3-0.1c0-2,0-4,0-6c0.1-1.9,0.1-3.8,0-5.7c0-0.8,0-1.7,0-2.5c0-0.6,0.1-0.7,0.7-0.7c1.9,0,3.9,0,5.8,0
		c0.2,0.2,0.2,0.5,0.2,0.8c0,1.3,0,2.5,0,3.8c0,0.4,0,0.7,0.5,0.7c2.1,0.1,4.2,0,6.3,0c0.4,0,0.5-0.1,0.4-0.5c0-0.6,0-1.2,0-1.8
		c0-0.2,0-0.5,0-0.7c0-0.7,0-1.4,0-2.1c0,0,0-0.1,0-0.1c0.3-0.2,0.6-0.3,0.8,0c0,0.2,0,0.5,0,0.7c0,1.2,0,2.4,0,3.6
		C104.1,26.5,104.1,27.2,104.2,27.9z"/>
	<path class="st0" d="M53.4,36.6c-0.2,0-0.4,0-0.6,0c-0.1-0.2-0.1-0.3-0.2-0.5c0-0.6,0-1.3,0-1.9c0-0.1,0.1-0.2,0.1-0.3
		c0-2,0-4,0-5.9c0-0.4-0.2-0.4-0.5-0.4c-2.1-0.2-4.1,0-6.2,0c-0.3,0-0.5,0.1-0.5,0.4c0,1.1-0.1,2.2,0.1,3.3c0,1.7,0,3.4,0,5.1
		c-2,0.1-4,0-6,0.1c-0.6,0-0.7-0.2-0.7-0.7c0-4.5,0.1-8.9,0-13.4c0-0.3-0.1-0.6,0.2-0.8c2,0,3.9,0,5.9,0c0.5,0,0.6,0.1,0.6,0.6
		c0,1.1,0,2.2,0,3.3c0,0.3,0,0.5,0,0.8c0,0.4,0.1,0.5,0.5,0.5c2,0,4.1,0,6.1,0c0.3,0,0.5-0.1,0.5-0.4c0-0.8,0.1-1.6-0.1-2.3
		c0-0.7,0-1.5,0-2.2c0.1-0.3,0.3-0.5,0.6-0.4c0.3,0.1,0.3,0.4,0.3,0.6c0,0.1,0,0.3,0,0.4c0,3.8-0.1,7.6,0,11.3
		C53.5,34.7,53.6,35.6,53.4,36.6z"/>
	<path class="st0" d="M21.4,33.6c0.2,0.4,0.3,0.9,0.7,1.2c0,0.3,0.1,0.6,0.4,0.7c0.1,0.3,0.2,0.6,0.3,0.8c-0.2,0.2-0.4,0.1-0.6,0.1
		c-2.1,0-4.2,0-6.3,0c-0.5,0-0.8-0.1-0.9-0.6c-0.4-1.4-1.3-1.6-2.6-1.5c-1.6,0.1-3.1,0.1-4.7,0c-0.6,0-1,0.2-1.2,0.8
		c-0.2,0.5-0.4,1.1-0.9,1.4c-0.1,0-0.3,0-0.4,0l0,0c-0.2-0.4,0.1-0.7,0.1-1.1c0,0,0,0,0-0.1c0.3-0.1,0.3-0.4,0.4-0.6
		c0.2-0.6,0.5-1.1,0.9-1.6c0.3-0.3,0.6-0.6,0.7-1c0,0,0-0.1,0-0.1c0.3-0.1,0.4-0.3,0.4-0.6l0,0C7.9,31.3,8,31.1,8,30.8
		c0.3-0.6,0.7-1.2,1-1.8c0-0.1,0-0.1,0.1-0.2c0.1-0.1,0.1-0.2,0.2-0.3c0.4-0.2,0.5-0.6,0.7-1c0.1-0.1,0.1-0.2,0.2-0.4
		c0.2-0.1,0.3-0.2,0.2-0.3c0,0,0-0.1,0-0.1c0.3-0.1,0.4-0.4,0.4-0.7l0,0c0.3-0.2,0.4-0.5,0.5-0.9l0,0c0.2-0.1,0.3-0.3,0.3-0.5l0,0
		c0.1-0.1,0.3-0.1,0.2-0.3c0.6-1.2,1.3-2.4,2-3.5c0.1-0.2,0.4-0.3,0.5,0.1c0.1,0.3,0.3,0.6,0.4,0.8c0.3,0.6,0.6,1.3,1.1,1.8
		c0.3,0.7,0.7,1.4,1.1,2c0.1,0.3,0.1,0.6,0.4,0.7c0,0,0,0.1,0,0.1c0,0.3,0.1,0.5,0.3,0.6c0,0,0,0.1,0,0.1c0.1,0.4,0.4,0.8,0.6,1.2
		c0.6,1.1,1.1,2.2,1.9,3.2c0.1,0.2,0.1,0.5,0.3,0.6C20.8,32.7,21,33.2,21.4,33.6z M7.4,33.6c2,0,3.9,0,5.8,0c0.4,0,0.5-0.1,0.3-0.4
		c-0.3-0.5-0.5-1-0.8-1.5c-0.6-1.2-1.3-2.4-2-3.7C9.5,29.8,8.5,31.6,7.4,33.6z"/>
	<path class="st0" d="M107.8,31.3c0.3-0.1,0.3-0.4,0.4-0.6l0,0c0.2-0.1,0.2-0.2,0.2-0.3c0.1-0.2,0.2-0.3,0.2-0.5
		c0.2-0.1,0.2-0.2,0.2-0.4c0.1-0.1,0.1-0.2,0.2-0.2c0.2-0.1,0.3-0.2,0.2-0.5c0.3-0.5,0.6-1,0.8-1.5c0.3,0,0.3-0.2,0.3-0.4
		c0.1-0.1,0.1-0.1,0.2-0.2c0.2-0.2,0.3-0.4,0.3-0.6c0,0,0.1,0,0.1-0.1c0.1-0.1,0.2-0.2,0.2-0.3c0,0,0-0.1,0-0.1
		c0.2-0.2,0.3-0.3,0.4-0.6c0,0,0-0.1,0-0.1c0.1-0.1,0.3-0.1,0.2-0.3c0.1-0.1,0.2-0.3,0.2-0.5c0.2,0,0.2-0.2,0.2-0.3
		c0.1-0.1,0.2-0.2,0.2-0.4c0.2,0,0.3-0.1,0.2-0.3c0-0.1,0.1-0.2,0.1-0.3c0,0,0,0,0,0c0.3-0.2,0.4-0.5,0.5-0.9
		c0.1-0.1,0.2-0.2,0.2-0.4c0.2-0.1,0.3-0.4,0.4-0.6c0,0,0-0.1,0-0.1c0.1,0,0.3,0,0.4,0l0,0c0,0.2,0,0.3,0.2,0.3
		c0.1,0.2,0.2,0.3,0.2,0.5c0,0.2,0.1,0.2,0.2,0.3c0.7,1.3,1.4,2.6,2.1,3.8c0,0.2,0,0.3,0.2,0.3c0.3,0.7,0.7,1.3,1,2
		c-0.1,0.2,0.1,0.3,0.2,0.3c0,0,0,0.1,0,0.1c0,0.3,0.1,0.5,0.4,0.6c0,0,0,0.1,0,0.1c0,0.3,0.1,0.6,0.4,0.7c0,0,0,0.1,0,0.1
		c0,0.2,0.1,0.3,0.2,0.3c0.6,1.4,1.4,2.6,2.1,4c0.4,0.7,1.1,1.3,1,2.2c-1-0.2-2.1,0-3.1-0.1c-1.5,0-2.9,0-4.4,0
		c-0.3-0.6-0.6-1.1-0.9-1.7c-0.1-0.2-0.2-0.3-0.5-0.3c-1.6,0-3.3,0-4.9,0c-0.3,0-0.6,0-1,0c-1.2-0.1-1.2-0.1-1.6,0.9
		c0,0.1-0.1,0.2-0.1,0.2c-0.2,0.1-0.3,0.2-0.3,0.4c-0.1,0.2-0.3,0.4-0.4,0.5c-0.1,0-0.3,0-0.4,0c-0.3-0.1-0.2-0.4-0.2-0.6
		c0.2-0.1,0.2-0.2,0.2-0.4c0,0,0,0,0-0.1c0.2-0.1,0.3-0.3,0.4-0.6c0.1-0.1,0.1-0.2,0.2-0.3c0.1-0.1,0.2-0.2,0.2-0.4c0,0,0-0.1,0-0.1
		c0.3-0.1,0.3-0.4,0.4-0.6C106.8,32.7,107.3,32,107.8,31.3z M110.9,28c-0.1,0-0.2,0-0.2,0.1c-1,1.7-2,3.4-3,5.1
		c-0.2,0.4,0.1,0.4,0.3,0.4c1.7,0,3.5,0,5.2,0c0.4,0,0.6,0,0.3-0.5C112.7,31.4,111.8,29.7,110.9,28z"/>
	<path class="st0" d="M57.9,35.9c-0.1-0.1-0.2-0.1-0.2-0.2c-0.1-0.1-0.2-0.2-0.3-0.2l0,0c0-0.2-0.1-0.2-0.3-0.3c0,0-0.1-0.1-0.1-0.1
		c0-0.1,0-0.3-0.2-0.3c0,0,0-0.1,0-0.1c-0.2-0.5-0.4-1.1-0.6-1.6c0-0.1,0-0.1,0-0.2c0-1.8-0.1-3.5-0.1-5.3c0-1.9,0-3.8-0.1-5.6
		c0-0.1,0-0.2,0-0.3c0-0.1,0.1-0.1,0.1-0.2c2.1,0,4.3,0,6.4,0c0.4,0.6,0.2,1.3,0.2,1.9c-0.1,4.1,0,8.2,0,12.3c0,0.2-0.1,0.5,0.3,0.4
		c0.6,0,1.2,0,1.8,0c0.9,0,1.7-0.2,2.4-0.6c0,0,0.1,0,0.1,0c0.3,0,0.6-0.1,0.7-0.4c0.6-0.4,0.9-1,1.2-1.6c0.4-0.3,0.3-0.8,0.3-1.2
		c0-0.3,0.1-0.7,0.1-1c0.4-0.7,0.2-1.4,0.2-2.1c0-2.3,0-4.5,0-6.8c0.1-0.4-0.1-0.8,0.3-1.1c0.1,0,0.2,0,0.3,0c0.3,0.2,0.3,0.6,0.3,1
		c0,0.6,0,1.2,0,1.8c-0.1,2.3-0.2,4.6-0.2,6.9c0,0.3,0,0.6,0,0.8c-0.2,0.3-0.2,0.6-0.2,1c-0.2,0.5-0.3,1-0.5,1.5
		c-0.3,0.1-0.3,0.4-0.4,0.6l0,0c-0.2,0.1-0.4,0.3-0.5,0.5c0,0-0.1,0.1-0.1,0.1c-0.3,0.2-0.7,0.4-1,0.7c-2.7,1-5.5,0.9-8.2,0.4
		c-0.2-0.3-0.6-0.2-0.9-0.3c-0.1,0-0.2-0.1-0.3-0.1C58.2,35.9,58.1,35.9,57.9,35.9z"/>
	<path class="st0" d="M145.9,21.8c0,0.1,0,0.1,0,0.2c-0.1,0-0.3,0.1-0.3,0.3c-1.7,0-3.5,0-5.2,0c-0.4-0.2-0.6,0-0.6,0.4
		c0,0.8,0,1.6,0,2.4c0,0.4,0.1,0.5,0.5,0.5c0.7,0,1.5,0,2.2-0.1c1.1,0,2.3,0,3.4,0c0.3,0,0.5,0.1,0.5,0.4c0,0.3-0.2,0.4-0.4,0.4
		c-0.2,0-0.5,0-0.7,0c-1.7,0-3.5,0-5.2,0c-0.5,0-0.2,0.4-0.2,0.6c0,2.9,0,5.9,0,8.8c0,0.3,0.1,0.7-0.4,0.7c-2.1,0-4.1,0-6.2,0
		c0-1.3,0-2.6,0-3.9c0.1-0.2,0.1-0.4,0.1-0.7c0-1.7,0-3.4,0-5.1c0-0.5,0.1-1-0.1-1.6c0-1,0-2,0-3c0-0.5,0.1-0.7,0.7-0.7
		c3.7,0,7.3,0,11,0c0.3,0,0.5,0,0.8,0C145.7,21.6,145.7,21.7,145.9,21.8z"/>
	<path class="st0" d="M30.6,31.3c0,1.3,0,2.5,0,3.8c0,0.4,0.1,0.7,0.6,0.6c0.3,0,0.6,0,1,0c1.5,0.1,3.1,0,4.6,0c0.3,0,0.7,0,0.7,0.4
		c0,0.4-0.4,0.3-0.7,0.3c-1.6,0-3.2,0-4.8,0c-2.5,0-4.9,0-7.4,0c-0.3,0-0.6,0.1-0.6-0.4c0-1.8,0-3.6,0-5.5c0.1-2.2,0.1-4.4,0-6.6
		c0-0.8-0.3-1.6,0.2-2.4c1.9,0,3.9,0,5.8,0c0.6,0,0.8,0.1,0.8,0.8c-0.1,1.1,0,2.3,0,3.4c-0.1,0.2-0.1,0.4-0.1,0.6c0,1.5,0,3,0,4.6
		C30.5,31,30.5,31.2,30.6,31.3z"/>
	<path class="st0" d="M123.9,34.5c0.1-1.3,0.1-2.7,0-4c0.1-0.5,0.1-0.9,0-1.4c0-0.8,0-1.6,0-2.4c0-0.4,0-0.8,0-1.2
		c0.1-0.8,0.1-1.7,0-2.5c0-0.5,0-0.9,0-1.4c0.1-0.1,0.1-0.1,0.2-0.2c2.1,0,4.3,0,6.4,0c0.2,0.2,0.1,0.5,0.1,0.7c0,1.1,0,2.2,0,3.4
		c0,2.2,0,4.3,0,6.5c0,1.3,0,2.6,0,3.9c0,0.3,0,0.5-0.4,0.5c-2.1,0-4.2,0.1-6.3-0.1C123.9,35.7,123.9,35.1,123.9,34.5z"/>
	<path class="st0" d="M147.9,21.5c2,0,4,0,6,0c0.5,0,0.6,0.1,0.6,0.6c0,1.6-0.1,3.2,0,4.8c0,3.1,0,6.3,0.1,9.4
		c-0.2,0.2-0.5,0.1-0.7,0.1c-1.7,0-3.5,0-5.2,0c-0.6,0-0.8-0.1-0.8-0.8c0-3.7,0.1-7.3,0-11C147.8,23.6,147.7,22.5,147.9,21.5z"/>
	<path class="st0" d="M16.4,52.7c-0.3-0.5-0.6-1-0.9-1.5c-0.1-0.4-0.3-0.8-0.7-1.1c-0.3-0.2-0.2-0.7-0.5-1c0-0.2,0-0.3-0.2-0.3
		c0,0,0-0.1,0-0.1c0-0.1,0-0.2-0.1-0.3c-0.2-0.3-0.3-0.5-0.5-0.8c-0.2-0.3-0.4-0.7-0.5-1c-0.1,2.1-0.1,4.1-0.1,6.2
		c0,0.2,0.1,0.5,0.4,0.5c0.2,0.2,0.5,0.2,0.4,0.5C13.4,54.2,13.2,54,13,54c-0.5,0-1,0-1.5,0c-0.1,0-0.3,0.1-0.4-0.2
		c0-0.2,0.1-0.3,0.2-0.4c0.5-0.1,0.6-0.6,0.6-1c0-2,0-4,0-6c0-0.4-0.1-0.7-0.5-0.9c-0.1-0.1-0.4-0.2-0.3-0.4
		c0.1-0.2,0.3-0.1,0.4-0.1c0,0,0.1,0,0.1,0c1.1-0.2,1.7,0.3,2.3,1.2c0.8,1.6,1.8,3.1,2.8,4.6c0.1,0.2,0.2,0.3,0.4,0.6
		c0-1.8,0-3.5,0-5.2c0-0.4-0.2-0.6-0.5-0.8c-0.1-0.1-0.3-0.1-0.3-0.3c0-0.2,0.2-0.2,0.4-0.2c0.6,0,1.2,0,1.9,0
		c0.1,0.2,0.1,0.3-0.1,0.5c-0.2,0.1-0.4,0.2-0.4,0.5C18,46.3,18,46.6,18,46.9c0,2.1,0,4.2,0,6.3c0,0.7-0.2,1-0.9,0.8
		C17,53.5,16.8,53.1,16.4,52.7z"/>
	<path class="st0" d="M108.6,52.2c0.1-1.8,0.1-3.6,0-5.4c0.1-0.4,0.2-0.9-0.3-1.1c0-0.2-0.2-0.2-0.3-0.2l0,0c0-0.1,0-0.3,0-0.4
		c0.3,0,0.5,0,0.8,0c0.7,0,1.5,0,2.2,0c0.6,0,1.2,0.1,1.8,0.3c0.8,0.2,1.3,0.9,1.4,1.8c0.1,1.2-0.5,2.1-1.5,2.6
		c-0.4,0.2-0.4,0.2-0.1,0.5c0.4,0.3,0.6,0.7,0.9,1.2c0.5,0.8,0.8,1.9,1.8,2.3c0.1,0.1,0.1,0.2,0.1,0.4l0,0c-2,0.1-2,0-2.9-1.8
		c-0.3-0.6-0.6-1.3-1.2-1.8c-0.4-0.4-0.8-0.2-1.2-0.2c-0.3,0-0.2,0.5-0.2,0.7c0,0.6,0,1.2,0,1.9c0,0.2,0,0.5,0.2,0.6
		c0.2,0.2,0.5,0.2,0.5,0.5c0,0.2-0.2,0.1-0.4,0.2c-0.6,0-1.1,0-1.7,0c-0.2,0-0.5,0-0.7,0c0-0.1,0-0.3,0-0.4l0,0c0.2,0,0.3,0,0.3-0.2
		C108.8,53.1,108.7,52.6,108.6,52.2z M110,47.6c0,0.5,0,1,0,1.5c0,0.2,0,0.4,0.2,0.4c0.8,0,1.6,0.1,2.3-0.6c0.6-0.7,0.5-1.5,0.3-2.3
		c-0.2-0.8-1.4-1.2-2.5-0.9c-0.6,0.2-0.2,0.8-0.3,1.2C109.9,47.2,110,47.4,110,47.6z"/>
	<path class="st0" d="M79.9,52.9c-0.4,0.5-0.8,1-1.5,1.2c-0.1,0-0.3-0.1-0.4,0.1c-0.6,0.1-1.1,0.1-1.7,0c-0.5-0.2-0.9-0.4-1.4-0.6
		l0,0c0-0.2-0.1-0.3-0.3-0.4c-0.5-0.5-0.5-1.1-0.5-1.7c0-1.6,0-3.2,0-4.8c0-0.5,0-1-0.5-1.2c-0.1-0.1-0.2-0.2-0.2-0.3
		c0.1-0.2,0.2-0.1,0.4-0.1c0.7,0,1.3,0,2,0c0.2,0,0.3,0,0.4,0.2c0.1,0.2-0.1,0.3-0.3,0.3c-0.4,0.2-0.5,0.6-0.5,1c0,1.7,0,3.4,0,5
		c0,1.7,1.4,2.5,2.8,1.7c0.5-0.3,0.8-0.7,0.8-1.3c0.2-1.9,0-3.9,0.1-5.8c0-0.4-0.2-0.6-0.5-0.7c-0.2-0.1-0.3-0.2-0.2-0.4
		c0.1-0.2,0.2-0.1,0.4-0.1c0.6,0,1.2,0,1.8,0c0.3,0,0.4,0.1,0.4,0.4c-0.1,0.1-0.3,0.1-0.3,0.3c-0.5,0.1-0.4,0.5-0.4,0.8
		c0,1.7,0,3.3,0,5C80,51.9,80,52.5,79.9,52.9z"/>
	<path class="st0" d="M56.5,53.9C56.4,54.1,56.2,54,56,54c-1.7,0-3.4,0-5.1,0c-0.2,0-0.5,0.1-0.5-0.1c-0.1-0.3,0.2-0.4,0.4-0.5
		c0.3-0.1,0.4-0.3,0.4-0.6c0-2.1,0-4.3,0-6.4c0-0.4-0.2-0.6-0.5-0.8c-0.1-0.1-0.3-0.2-0.2-0.4c0.1-0.2,0.3-0.2,0.4-0.2
		c1.8,0,3.5,0,5.3,0c0.4,0,0.5,0.1,0.5,0.5c0,0.4,0,0.9,0,1.3c0,0.2,0,0.4-0.3,0.4c-0.2,0-0.4,0-0.4-0.2c-0.3-1.3-1.2-1.4-2.2-1.3
		c-1.2,0.1-1.2,0-1.2,1.2c0,0.6,0,1.2,0,1.7c0,0.4,0.1,0.5,0.5,0.5c0.3,0,0.5,0,0.8,0c0.5,0,0.9-0.2,1-0.7c0.1-0.3,0.2-0.3,0.5-0.3
		c0.4,0,0.3,0.2,0.3,0.4c0,0.6,0,1.3,0,1.9c0,0.2,0.1,0.4-0.3,0.4c-0.2,0-0.4,0-0.5-0.3c-0.3-0.7-1.3-1.1-2-0.8
		c-0.2,0.1-0.2,0.3-0.2,0.5c0,0.9,0,1.8,0,2.7c0,0.3,0.1,0.4,0.5,0.4c0.3,0,0.6,0,0.9,0c1.6,0,1.6,0,2.1-1.4
		c0.1-0.3,0.3-0.3,0.5-0.3c0.5,0,0.2,0.5,0.3,0.7C56.5,52.9,56.5,53.4,56.5,53.9z"/>
	<path class="st0" d="M141,52.5c0.1-2,0.1-4,0-5.9c0.1-0.4,0.1-0.7-0.3-0.9c0-0.2-0.2-0.2-0.3-0.2l0,0c0-0.1,0-0.3,0-0.4
		c1.3,0,2.6,0,4,0c0.2,0.3,0.5,0.2,0.7,0.2c0.1,0,0.3,0.1,0.4,0.1c0.3,0.2,0.6,0.5,0.9,0.8c0,0.1,0,0.2,0.1,0.3
		c0,0.1,0.1,0.2,0.1,0.3c-0.1,0.1-0.1,0.2,0,0.3c0,0.3,0,0.6,0,0.8c-0.1,0.2-0.2,0.5-0.2,0.7c-0.1,0.1-0.1,0.3-0.2,0.4
		c-0.2,0-0.3,0.1-0.3,0.3l0,0c-0.2,0.1-0.4,0.2-0.5,0.4c-0.6,0.2-0.7,0.5-0.1,0.9c0.1,0,0.1,0.1,0.2,0.2c0.1,0.2,0.1,0.3,0.3,0.4
		c0.1,0.1,0.1,0.2,0.2,0.3c0,0.2,0,0.3,0.2,0.4c0,0,0,0.1,0.1,0.1c0.1,0.3,0.2,0.6,0.4,0.8c0,0,0,0.1,0.1,0.1
		c0.2,0.3,0.2,0.8,0.7,0.9c0.2,0.2,0.8,0.3,0.2,0.7c-0.5,0-1,0-1.5,0c-0.1,0-0.2,0-0.2,0c0-0.2-0.1-0.3-0.3-0.4
		c-0.1-0.6-0.6-1-0.7-1.6c-0.1-0.3-0.1-0.6-0.4-0.7c0-0.1,0-0.2-0.1-0.3c0-0.1,0-0.1,0-0.1c0-0.2-0.1-0.3-0.2-0.3
		c-0.3-0.4-0.7-0.5-1.1-0.4c-0.1,0-0.2,0-0.3,0c-0.3-0.1-0.3,0.1-0.3,0.3c0,0.7,0,1.5,0,2.2c0,0.2,0,0.5,0.3,0.6
		c0.2,0.1,0.4,0.3,0.6,0.4c0,0,0,0.1,0,0.1c-0.9,0.3-1.8,0.1-2.8,0.1l0,0c0-0.1,0-0.3,0-0.4l0,0c0.2,0,0.3,0,0.3-0.2
		C141.1,53.2,141.1,52.8,141,52.5z M143.3,45.7c-0.9,0-0.9,0-0.9,1c0,0.6,0,1.2,0,1.8c0,1.1,0,1.1,1.1,1c1,0,1.6-0.5,1.8-1.4
		C145.6,46.6,144.9,45.7,143.3,45.7z"/>
	<path class="st0" d="M34.4,53.5c-0.1,0.3-0.1,0.6-0.6,0.5c-1.7,0-3.4,0-5.2,0c-0.2,0-0.4,0.1-0.5-0.1c-0.1-0.3,0.1-0.3,0.3-0.4
		c0.4-0.1,0.5-0.4,0.5-0.8c0-2.1,0-4.2,0-6.3c0-0.3,0-0.6-0.4-0.7c0-0.2-0.2-0.2-0.3-0.2l0,0c0-0.1,0-0.2,0-0.3
		c0.3-0.2,0.6-0.1,0.9-0.1c1.6,0,3.1,0,4.7,0c0.5,0,0.7,0.1,0.6,0.6c0,0.4,0,0.8,0,1.2c0,0.2,0,0.4-0.3,0.4c-0.2,0-0.4,0.1-0.4-0.2
		c-0.3-1.2-1.1-1.4-2.1-1.3c-1.3,0.1-1.3,0-1.3,1.4c0,0.5,0,0.9,0,1.4c0,0.5,0.1,0.7,0.6,0.7c0.7,0,1.5,0.2,1.7-0.9
		c0-0.2,0.3-0.1,0.5-0.1c0.2,0,0.2,0.1,0.2,0.3c0,0.7,0,1.4,0,2.1c0,0.2,0,0.4-0.3,0.3c-0.2,0-0.3,0-0.4-0.2
		c-0.3-0.8-1.3-1.1-2.1-0.9c-0.2,0.1-0.2,0.2-0.2,0.4c0,0.9,0,1.9,0,2.8c0,0.3,0.1,0.4,0.4,0.4c0.5,0,0.9,0,1.4,0
		c1,0,1.3-0.2,1.6-1.1c0.1-0.3,0.1-0.6,0.5-0.6c0.5,0.1,0.2,0.5,0.3,0.7C34.3,52.7,34.3,53.1,34.4,53.5z"/>
	<path class="st0" d="M118.3,54c-0.1,0-0.2,0-0.2,0c0-0.2-0.1-0.3-0.3-0.2c-0.1-0.1-0.2-0.1-0.3-0.2c0-0.2-0.1-0.3-0.3-0.3
		c0,0-0.1-0.1-0.1-0.1c0-0.2-0.1-0.3-0.3-0.3c0,0,0-0.1,0-0.1c0-0.2,0-0.3-0.2-0.4c-0.6-1.7-0.7-3.5-0.1-5.3
		c0.8-2.3,3.7-3.1,5.7-1.5c0,0,0.1,0.1,0.1,0.1c0.3,0.5,0.6,1,0.8,1.6c0,0.1,0,0.2,0.1,0.3c0,0.2,0,0.4,0.1,0.5
		c0,0.5-0.1,0.9,0.1,1.4c0,0.1,0,0.2,0,0.2c-0.2,0.3-0.1,0.6-0.1,0.9c0,0.2,0,0.4-0.1,0.5c-0.1,0.1-0.1,0.2-0.1,0.3
		c0,0.1-0.1,0.2-0.1,0.3c-0.2,0.1-0.2,0.2-0.2,0.3c-0.1,0.2-0.1,0.3-0.2,0.5c-0.2,0.1-0.3,0.2-0.4,0.4l0,0c-0.2,0-0.3,0.1-0.3,0.3
		c-0.2,0.1-0.3,0.2-0.5,0.3c-0.2-0.1-0.2,0.1-0.3,0.2c-0.1,0-0.2,0-0.3,0c-0.2,0-0.3,0-0.4,0.1c-0.1,0-0.3,0.1-0.4,0.1
		c-0.4,0-0.7-0.1-1.1-0.1C118.7,54,118.5,54.1,118.3,54z M121.9,49.4c0-0.8-0.1-1.7-0.4-2.6c-0.3-0.8-0.8-1.3-1.7-1.4
		c-0.8-0.1-1.5,0.3-1.8,1c-0.8,2-0.8,4,0,6c0.5,1.2,2.3,1.6,3.2,0.1C121.8,51.7,121.9,50.6,121.9,49.4z"/>
	<path class="st0" d="M83.5,51.5c-0.1,0.2-0.2,0.4-0.3,0.6c-0.3,0.8-0.1,1.2,0.6,1.5c0,0.1,0,0.3,0,0.4c-0.8,0-1.7,0-2.5,0
		c-0.1,0-0.3,0.1-0.4-0.2c0-0.2,0.1-0.2,0.2-0.3c0.8-0.6,1.1-1.6,1.5-2.5c0.8-1.9,1.5-3.8,2.2-5.8c0.2-0.5,0.5-0.4,0.9-0.4
		c0.4,0,0.4,0.2,0.5,0.5c0.8,2.5,1.5,5,2.3,7.5c0.1,0.2,0.2,0.4,0.4,0.5c0,0.2,0.1,0.3,0.3,0.2c0.1,0.1,0.1,0.4-0.1,0.4
		c-0.9,0.1-1.9,0.1-2.8,0c-0.1,0-0.1-0.2,0-0.3c0.2,0,0.4,0,0.5-0.2c0.4-0.3,0.2-0.7,0.2-1c0-0.2,0-0.3-0.1-0.4c0-0.1,0-0.2,0-0.3
		c0-0.2,0.1-0.4-0.2-0.5c0-0.1,0-0.2-0.2-0.2c-0.8,0-1.6,0-2.4,0c-0.2,0-0.3,0-0.4,0.2C83.5,51.2,83.5,51.4,83.5,51.5z M85.4,46.4
		c0,0-0.1,0-0.1,0c-0.4,1.2-0.9,2.4-1.3,3.7c-0.1,0.2,0,0.3,0.2,0.3c0.7,0,1.3,0,2,0c0.2,0,0.3-0.1,0.3-0.3
		C86.1,48.9,85.8,47.6,85.4,46.4z"/>
	<path class="st0" d="M136.5,48.6c0.1-0.1,0.1-0.2,0.2-0.3c0.1-0.3,0.3-0.3,0.5-0.3c0.3,0.1,0.1,0.3,0.2,0.4c0,0.2,0,0.4,0,0.5
		c0,0.4,0,0.8,0,1.2c0,0.2,0.2,0.5-0.2,0.6c-0.4,0.1-0.4-0.2-0.5-0.4c-0.1-0.3-0.2-0.6-0.7-0.7c-1.4-0.2-1.5-0.1-1.5,1.3
		c0,0.2,0,0.5,0,0.7c0,1.7,0,1.7,1.7,1.7c1.2,0,1.3-0.1,1.7-1.2c0.1-0.4,0.3-0.5,0.6-0.5c0.2,0.1,0.1,0.4,0.2,0.6
		c-0.2,0.5-0.1,1.1-0.1,1.7c0,0,0,0.1,0,0.1c-2,0-4,0-6,0c0-0.2-0.1-0.3,0.1-0.5c0.6-0.3,0.6-0.8,0.5-1.3c0.1-1.9,0.1-3.9,0-5.8
		c0.1-0.3,0-0.6-0.3-0.7c0-0.2-0.2-0.2-0.3-0.2l0,0c0-0.1,0-0.3,0-0.4c0.1,0,0.3,0,0.4,0c1.5,0,3,0,4.4,0c0.4,0,0.7,0,1.1,0
		c0.1,0.7,0.1,1.5,0,2.2c0,0-0.1,0-0.1,0c-0.2-0.1-0.3-0.1-0.5-0.2c-0.2-1.1-0.5-1.4-1.6-1.4c-0.4,0-0.7,0-1.1,0
		c-0.5,0-0.7,0.1-0.7,0.6c0.1,0.7,0,1.4,0,2.1c0,0.6,0.1,0.8,0.7,0.6c0.4,0,0.8,0.2,1.1-0.1C136.5,48.9,136.6,48.8,136.5,48.6z"/>
	<path class="st0" d="M130.1,49.7c-0.1,0-0.3,0-0.4,0.2c-0.4,0.1-0.7,0.2-1.1,0.2c-0.6,0.2-1.5-0.3-1.8,0.3c-0.3,0.5-0.1,1.3-0.1,2
		c0,0.5,0.1,1,0.6,1.2c0.2,0.1,0.2,0.2,0.2,0.4c-0.7,0-1.4,0-2.1,0.1c-0.2,0-0.4,0-0.6,0c-0.1,0-0.2,0-0.3-0.2c0-0.1,0-0.3,0.1-0.3
		c0.8-0.2,0.7-0.9,0.6-1.5c0.1-1.8,0.1-3.7,0-5.5c0.1-0.4,0-0.8-0.4-1c-0.2-0.1-0.3-0.3-0.2-0.5c1.3,0,2.6,0,3.9-0.1
		c0.3,0.1,0.6,0.2,0.8,0.2c0.9,0.2,1.4,0.7,1.5,1.7c0,0.3,0,0.7,0,1c-0.1,0.3-0.1,0.5-0.2,0.8c0,0-0.1,0,0,0.1
		c-0.2,0-0.2,0.2-0.2,0.3C130.4,49.3,130.2,49.4,130.1,49.7z M126.8,47.6c0,0.5,0,1,0,1.5c0,0.2,0,0.3,0.2,0.4
		c1.7,0.5,3-0.8,2.7-2.5c-0.2-1-1.2-1.5-2.5-1.3c-0.8,0.1-0.2,0.9-0.4,1.4C126.8,47.3,126.8,47.4,126.8,47.6z"/>
	<path class="st0" d="M101.2,52.2c0.1-1.9,0.1-3.8,0-5.7c0.1-0.4,0.1-0.7-0.3-0.9c0-0.2-0.2-0.2-0.3-0.2l0,0c0-0.1,0-0.3,0-0.4
		c0.5,0,1,0,1.5,0c0.5,0,0.9,0,1.4,0c0.6,0,1.3,0.1,1.9,0.3c0.8,0.3,1.4,1,1.4,1.9c0,0.5-0.1,1-0.1,1.5c-0.2,0.1-0.1,0.3-0.2,0.4
		c-0.2,0.1-0.4,0.3-0.5,0.5c-0.1,0.1-0.3,0.1-0.4,0.2c-0.2,0-0.3,0.1-0.3,0.2c-0.1,0-0.2,0-0.4,0.1c-0.2,0-0.3-0.1-0.4,0.1
		c-0.6,0-1.1,0-1.7,0c-0.1,0-0.3,0-0.3,0.1c0,0.9-0.2,1.9,0.1,2.8c0,0.2,0.2,0.3,0.3,0.3c0,0.2,0.2,0.2,0.4,0.2l0,0
		c0,0.1,0,0.3,0,0.4c-0.2,0-0.5,0-0.7,0c-0.1,0-0.2,0-0.4,0c0,0-0.1,0-0.1,0c-0.2,0-0.5,0-0.7,0c-0.1,0-0.2,0-0.3,0c0,0-0.1,0-0.1,0
		c-0.2-0.1-0.5,0.1-0.6-0.3c0-0.1,0-0.2,0-0.3C101.2,53.4,101.3,53.3,101.2,52.2z M102.5,47.6c0,0.5,0,1,0,1.5c0,0.2,0,0.4,0.2,0.4
		c0.8,0,1.7,0.1,2.3-0.6c0.6-0.7,0.5-1.5,0.2-2.3c-0.3-0.7-1.3-1.2-2.5-0.9c-0.7,0.2-0.2,0.8-0.3,1.2
		C102.4,47.1,102.5,47.4,102.5,47.6z"/>
	<path class="st0" d="M59.6,51.3c0.1,1.1,0.6,1.9,1.5,2.2c0.8,0.3,1.7-0.1,2-0.9c0.1-0.4,0.3-0.6,0.7-0.5c0.5,0.1,0.2,0.4,0.2,0.7
		c0,0.2,0,0.5,0,0.7c0,0.4-0.1,0.6-0.6,0.6c-0.3,0.1-0.7-0.1-1,0.2c-0.6,0-1.3,0-1.9-0.1c-0.5-0.2-1-0.4-1.5-0.8
		c-0.6-0.5-0.8-1.1-0.9-1.8c-0.3-1.4-0.3-2.9,0.1-4.2c0.6-1.9,2.2-2.7,4.4-2.5c1.3,0.1,1.6,0.5,1.4,1.8c0,0.2-0.1,0.3-0.3,0.3
		c-0.2,0-0.5,0.1-0.5-0.2c0-0.2-0.2-0.4-0.3-0.6c-0.1-0.4-0.5-0.5-0.8-0.6c-1.4-0.1-2.3,0.8-2.5,2.5c-0.3,0.2-0.2,0.5-0.2,0.8
		c0,0.5,0,1.1,0,1.6C59.4,50.7,59.3,51.1,59.6,51.3z"/>
	<path class="st0" d="M160.3,49.3c-0.9,1.1-0.5,2.4-0.5,3.6c0,0.2,0.1,0.4,0.3,0.4c0,0.2,0.2,0.1,0.3,0.2c0.1,0.1,0.3,0.1,0.2,0.3
		c0,0.2-0.2,0.2-0.3,0.2c-0.8,0-1.6,0-2.3,0c-0.3,0-0.4-0.1-0.4-0.4c0.2,0,0.3,0,0.4-0.2c0.3,0,0.3-0.2,0.4-0.4
		c0.1,0,0.2-0.1,0.2-0.3c0-0.8,0-1.6,0-2.3c0-0.2-0.1-0.3-0.2-0.3c0,0,0-0.1,0-0.1c0-0.3-0.1-0.6-0.4-0.7c0,0,0-0.1,0-0.1
		c0-0.2,0-0.3-0.2-0.4c-0.5-0.9-1-1.8-1.5-2.7c0-0.2-0.1-0.3-0.3-0.3c-0.1-0.1-0.3-0.2-0.4-0.3c-0.1-0.2-0.1-0.3,0-0.5
		c0.8,0,1.5,0,2.3,0c0.2,0,0.3,0,0.4,0.2c0.1,0.2-0.1,0.2-0.2,0.3c-0.4,0.3-0.4,0.5-0.2,1c0.4,0.8,0.8,1.6,1.2,2.4
		c0.2,0.4,0.5,0.5,0.7,0c0.1-0.3,0.4-0.3,0.3-0.5c0.2-0.1,0.3-0.3,0.3-0.5c0.1-0.1,0.2-0.2,0.2-0.4c0.2-0.1,0.3-0.2,0.2-0.4
		c0,0,0-0.1,0-0.1c0.3-0.1,0.3-0.5,0.4-0.7c0.1-0.3,0-0.5-0.2-0.6c-0.2-0.1-0.3-0.2-0.3-0.4c0.1-0.3,0.3-0.1,0.5-0.2
		c0.6,0,1.3,0,1.9,0c0.2,0.3-0.1,0.4-0.2,0.6c-0.3,0.1-0.4,0.3-0.6,0.5c-0.3,0.1-0.3,0.3-0.4,0.6c-0.4,0.5-0.6,1.1-0.9,1.6
		c-0.2,0-0.3,0.2-0.2,0.3c0,0,0,0,0,0.1C160.4,48.9,160.3,49.1,160.3,49.3z"/>
	<path class="st0" d="M148.5,47.4c-0.2,0-0.6,0.2-0.6-0.3c0-0.1,0-0.3,0-0.4c0,0,0-0.1,0-0.1c0.1-0.5-0.2-1.1,0.1-1.4
		c0.3-0.2,0.9-0.1,1.4-0.1c1.8,0,3.7,0,5.5,0c0,0.8,0,1.5,0,2.3c-0.2,0-0.5,0.1-0.7-0.1c0-0.2,0-0.4-0.2-0.5c0-0.1,0-0.1-0.1-0.2
		c-0.1-0.2-0.1-0.5-0.4-0.6l0,0c-0.1-0.2-0.2-0.3-0.4-0.2c-0.3,0-0.6,0-1,0c-0.4,0-0.2,0.3-0.2,0.4c0,2,0,4,0,6c0,0.3,0,0.6,0.2,0.8
		c0.1,0.3,0.3,0.5,0.6,0.6c0.1,0,0.3,0.1,0.2,0.3c0,0.2-0.2,0.2-0.3,0.2c-0.8,0-1.7,0-2.5,0c-0.1,0-0.3,0-0.3-0.2
		c0-0.2,0-0.4,0.3-0.3c0.2-0.1,0.5-0.1,0.6-0.4c0.1-0.1,0.1-0.2,0.1-0.4c0-2.2,0-4.5,0-6.7c-0.1-0.5-0.4-0.2-0.6-0.2
		c-0.9,0-1.3,0.2-1.5,1.3C148.5,47.1,148.5,47.3,148.5,47.4L148.5,47.4z"/>
	<path class="st0" d="M41.9,54c-1.8,0-3.6,0-5.4,0c-0.2,0-0.4,0.1-0.5-0.2c-0.1-0.3,0.2-0.3,0.4-0.4c0.3-0.1,0.5-0.4,0.5-0.8
		c0-2.1,0-4.2,0-6.3c0-0.4-0.2-0.7-0.5-0.9c-0.1-0.1-0.2-0.2-0.2-0.3c0-0.2,0.2-0.2,0.3-0.2c0.7,0,1.4,0,2.1,0c0.1,0,0.3,0,0.3,0.2
		c0,0.2-0.1,0.3-0.2,0.3c-0.5,0.3-0.6,0.7-0.6,1.2c0,2,0,4,0,6c0,0.5,0.2,0.6,0.6,0.6c0.2,0,0.5,0,0.7,0c1.5,0,1.7-0.2,2-1.7
		c0.2-0.1,0.1-0.2,0.2-0.4c0.4-0.1,0.6,0,0.6,0.5c0,0.3,0,0.6,0,0.9C41.9,53.1,42,53.6,41.9,54z"/>
	<path class="st0" d="M49,54c-1.9,0-3.9,0-5.8,0c-0.2-0.4,0.3-0.4,0.3-0.6c0.3-0.1,0.3-0.3,0.3-0.6c0-2.2,0-4.3,0-6.5
		c0-0.2,0-0.4-0.2-0.5c-0.1-0.2-0.2-0.4-0.5-0.4l0,0c0-0.1,0-0.3,0-0.4c0.8,0,1.5,0,2.3,0c0.2,0,0.3,0,0.4,0.2
		c0,0.2-0.1,0.3-0.2,0.3c-0.5,0.2-0.5,0.6-0.5,1.1c0,2.1,0,4.1,0,6.2c0,0.5,0.2,0.6,0.6,0.6c0.3,0,0.6,0,0.9,0
		c1.2,0,1.5-0.2,1.7-1.4c0-0.2,0.1-0.3,0.1-0.5c0.1-0.3,0.3-0.2,0.5-0.2c0.3,0,0.2,0.2,0.2,0.4c0,0.3,0,0.7,0,1
		C49.1,53.1,49,53.6,49,54z"/>
	<path class="st0" d="M95.4,52.1c0-0.1,0-0.2,0-0.3c0.2-0.1,0.2-0.3,0.3-0.6c0.4-0.1,0.7,0,0.6,0.5c0,0.2,0,0.4,0,0.6
		c-0.2,0.5-0.1,1.1-0.2,1.6c-1.8,0-3.6,0-5.5,0c-0.2,0-0.4,0.1-0.4-0.2c0-0.2,0.1-0.3,0.3-0.4c0.4-0.1,0.5-0.4,0.5-0.9
		c0-2.1,0-4.1,0-6.2c0-0.4-0.2-0.6-0.5-0.8c-0.1-0.1-0.3-0.2-0.2-0.4c0.1-0.2,0.2-0.2,0.4-0.2c0.7,0,1.3,0,2,0c0.1,0,0.3,0,0.3,0.2
		c0.1,0.2-0.1,0.3-0.2,0.3c-0.5,0.3-0.6,0.7-0.6,1.2c0,2,0,4.1,0,6.1c0,0.4,0.1,0.6,0.5,0.5c0.6,0,1.1,0,1.7,0c0.3,0,0.5,0,0.6-0.4
		l0,0C95.4,52.8,95.4,52.4,95.4,52.1z"/>
	<path class="st0" d="M27,47.4c-0.2,0-0.5,0.1-0.6-0.1c0-0.4-0.2-0.8-0.4-1.1c-0.1-0.1-0.1-0.1-0.2-0.2c-0.1-0.2-0.2-0.3-0.4-0.3
		c-0.3,0-0.6,0-1,0c-0.4,0-0.3,0.2-0.3,0.4c0,2,0,4.1,0,6.1c0,0.4-0.1,0.8,0.4,1.1c0,0.1,0.2,0.1,0.3,0.2c0.1,0.1,0.3,0.1,0.3,0.3
		C25,54.1,24.7,54,24.6,54c-0.8,0-1.6,0-2.4,0c-0.3-0.5,0.4-0.4,0.4-0.7c0.2-0.1,0.2-0.2,0.2-0.3c0.2,0,0.2-0.2,0.2-0.3
		c0-2.2,0-4.4,0-6.7c0-0.2,0-0.3-0.3-0.3c-0.3,0-0.6,0-1,0c-0.2,0-0.3,0-0.4,0.2c0,0-0.1,0.1-0.1,0.1c-0.2,0-0.2,0.2-0.2,0.4
		c0,0,0,0,0,0.1c-0.3,0.2-0.3,0.6-0.4,0.9c-0.7,0.2-0.7-0.2-0.7-0.7c0-0.1,0-0.1,0-0.2c0-0.5-0.2-1.1,0.1-1.3c0.4-0.3,1-0.1,1.5-0.1
		c1.8,0,3.6,0,5.4,0C27.1,45.8,27,46.6,27,47.4z"/>
	<path class="st0" d="M66.8,45.9C66.8,45.9,66.7,45.9,66.8,45.9c-0.4,0.2-0.5,0.5-0.6,0.8c0,0.1,0,0.2,0,0.3
		c-0.1,0.1-0.1,0.2-0.1,0.3c-0.7,0.3-0.8,0.2-0.7-0.5c0-0.4,0-0.8,0-1.2c0-0.4,0.1-0.5,0.5-0.5c2.2,0,4.3,0,6.5,0c0,0.8,0,1.6,0,2.3
		c-0.5,0.1-0.8-0.1-0.9-0.6c0-0.2,0-0.4-0.2-0.5c0-0.2-0.1-0.3-0.2-0.3c0,0,0,0,0,0c-0.1-0.2-0.2-0.2-0.3-0.2c-0.3,0-0.6,0-1,0
		c-0.4,0-0.3,0.3-0.3,0.5c0,2,0,3.9,0,5.9c0,0.4,0,1,0.4,1.3c0.1,0.1,0.2,0.1,0.3,0.2c0.1,0.1,0.3,0.1,0.2,0.3
		c0,0.2-0.2,0.2-0.3,0.2c-0.8,0-1.6,0-2.4,0c-0.3,0-0.4-0.1-0.3-0.4c0.2,0,0.4,0,0.5-0.2c0,0,0.1,0,0.1,0c0.3-0.2,0.4-0.5,0.4-0.8
		c0-2.1,0-4.3,0-6.4c0-0.2,0.1-0.4-0.2-0.4c-0.3,0-0.6,0-1,0C67,45.7,66.9,45.7,66.8,45.9z"/>
	<path class="st0" d="M7.3,45.7L7.3,45.7C7.3,45.7,7.2,45.7,7.3,45.7C7.2,45.5,6.8,45.4,7,45c0.8,0,1.6,0,2.3,0c0.2,0,0.3,0,0.4,0.2
		c0,0.2-0.1,0.2-0.2,0.3c-0.5,0.3-0.6,0.7-0.6,1.2c0,1.8,0,3.7,0,5.5c0,0.5-0.1,1.1,0.6,1.2c0.1,0,0.1,0.2,0.1,0.3
		c0,0.3-0.2,0.2-0.4,0.2c-0.8,0-1.6,0-2.3,0c0-0.1,0-0.3,0-0.4c0,0,0,0,0,0c0.2,0,0.3-0.1,0.3-0.3l0,0l0,0c0.2,0,0.3-0.1,0.2-0.3
		c0.1-2.3,0.1-4.5,0-6.8C7.6,46,7.7,45.8,7.3,45.7z"/>
	<path class="st1" d="M163.5,5.4L163.5,5.4c-0.1,0-0.1,0-0.1,0c-1.4,0.3-2.5,1-3.6,1.8c-1.6,1.2-2.7,2.7-3.5,4.5
		c-0.1,0.1,0,0.5-0.3,0.4c-0.3-0.1-0.1-0.3-0.1-0.5c0.5-1.7,1.3-3.3,2.5-4.6c1.9-2,4.1-3.3,6.9-3.7c4.9-0.6,8.8,1.1,11.6,5.1
		c0.4,0.6,0.7,1.3,1,1.9c0.1,0.3,0.1,0.7,0.4,1c0,0.2,0.1,0.4,0.1,0.5c0,0.1,0,0.1,0.1,0.2c0,0.1,0,0.2,0,0.2c0,0.5-0.1,1.1,0.2,1.5
		c0,0.2,0,0.4,0,0.6c-0.3,0.8-0.2,1.7-0.4,2.5c0,0.2,0,0.4-0.1,0.5c-0.3,0.2-0.2,0.4-0.2,0.7c-1.2,3-3.2,5.2-6,6.6c-2,1-4,1.3-6.2,1
		c-0.3,0-0.5-0.1-0.8-0.4c0.8-0.1,1.5-0.1,2.2-0.1c2.1-0.3,4-1.1,5.6-2.5c2.1-1.7,3.5-4,3.9-6.7c0.4-3-0.5-5.6-2.5-7.8
		c-2-2.2-4.6-3.2-7.6-3.3C165.6,4.8,164.5,4.9,163.5,5.4z"/>
</g>
</svg>
